<svg width="4.4rem" height="4.4rem" viewBox="0 0 44 44" fill="none" xmlns="http://www.w3.org/2000/svg">
<path d="M10.8175 30.3667C14.3565 30.3667 17.2354 27.5057 17.2354 23.9887C17.2354 23.6941 16.9948 23.4546 16.6979 23.4546H14.0522L12.1725 16.3328H12.5923C12.6714 16.3328 12.7493 16.3152 12.8213 16.2821L20.2679 12.8009V13.8789C20.2679 14.1735 20.5085 14.413 20.8054 14.413C21.1018 14.413 21.3429 14.1739 21.3429 13.8789V12.4933H23.6325L23.6321 35.8303H21.3429V17.2543C21.3429 16.9597 21.1022 16.7202 20.8054 16.7202C20.5089 16.7202 20.2679 16.9593 20.2679 17.2543L20.2683 35.8303H16.6983C16.4018 35.8303 16.1608 36.0694 16.1608 36.3644V38.5281H11.0679C10.7715 38.5281 10.5304 38.7672 10.5304 39.0623C10.5304 39.3569 10.7711 39.5964 11.0679 39.5964H39.7868C40.0833 39.5964 40.3243 39.3573 40.3243 39.0623C40.3243 38.7676 40.0837 38.5281 39.7868 38.5281H28.9377V36.3644C28.9377 36.0698 28.6971 35.8303 28.4003 35.8303H24.7065V12.8013L32.1532 16.2825C32.2248 16.316 32.3031 16.3331 32.3822 16.3331H32.9253L31.0456 23.455H28.4002C28.1038 23.455 27.8628 23.6941 27.8628 23.9891C27.8628 27.506 30.7417 30.3671 34.2806 30.3671C37.8195 30.3671 40.6984 27.506 40.6984 23.9891C40.6984 23.6945 40.4578 23.455 40.161 23.455L37.5164 23.4546L35.6367 16.3328H37.8057C38.0013 16.3328 38.1812 16.227 38.2757 16.0571C38.3701 15.8873 38.3649 15.6794 38.2607 15.5152L37.1824 13.8059C37.0246 13.5559 36.6925 13.4803 36.4418 13.6371C36.1903 13.7936 36.1146 14.1236 36.272 14.3731L36.8346 15.2649H32.5022L24.3978 11.4764C24.3944 11.4749 24.3914 11.4761 24.388 11.4742C24.3209 11.4444 24.2471 11.4258 24.1688 11.4258H20.8056C20.7273 11.4258 20.6534 11.4444 20.5863 11.4742C20.583 11.4757 20.58 11.4746 20.5766 11.4764L12.4721 15.2649H8.13978L8.70236 14.3731C8.85978 14.1232 8.78407 13.7939 8.53258 13.6371C8.28109 13.4803 7.94976 13.5559 7.79196 13.8059L6.7129 15.5152C6.60908 15.6798 6.60346 15.8873 6.69791 16.0571C6.79236 16.227 6.97264 16.3328 7.16791 16.3328H9.46132L7.58165 23.4546H4.93591C4.63945 23.4546 4.39844 23.6937 4.39844 23.9887C4.39956 27.5057 7.27849 30.3667 10.8173 30.3667L10.8175 30.3667ZM27.8631 38.528H17.2347L17.2351 36.8984H27.8635L27.8631 38.528ZM34.2817 29.2988C31.5168 29.2988 29.2353 27.2014 28.9651 24.5229H31.4594H31.4617H31.4632H37.1007H37.1022H37.1044H39.5987C39.3274 27.201 37.046 29.2988 34.2818 29.2988H34.2817ZM36.4058 23.4546H32.1578L34.0375 16.3328H34.5266L36.4058 23.4546ZM10.5731 16.3328H11.0622L12.9419 23.4546H8.69384L10.5731 16.3328ZM7.99554 24.5229H7.99779H7.99929H13.6364H13.6379H13.6401H16.1345C15.8642 27.2014 13.5827 29.2988 10.8178 29.2988C8.05293 29.2988 5.77143 27.2014 5.50123 24.5229H7.99554Z" fill="#4692FE"/>
<path d="M5.18201 38.5312C4.88554 38.5312 4.64453 38.7704 4.64453 39.0654C4.64453 39.36 4.88516 39.5995 5.18201 39.5995H8.24196C8.53843 39.5995 8.77944 39.3604 8.77944 39.0654C8.77944 38.7708 8.53881 38.5312 8.24196 38.5312H5.18201Z" fill="#4692FE"/>
<path d="M12.1209 14.5604L20.8958 9.63968L24.073 9.63335L32.8592 14.5605C32.9424 14.6071 33.0331 14.6294 33.1223 14.6294C33.3097 14.6294 33.4919 14.5318 33.5908 14.3575C33.7366 14.1005 33.6456 13.7749 33.3866 13.63L24.9834 8.91783L25.7739 6.21701C25.8342 6.01103 25.7641 5.78866 25.5966 5.65308L22.8294 3.42007C22.6322 3.26102 22.3489 3.26102 22.1517 3.42007L19.3845 5.65308C19.217 5.78829 19.1469 6.01028 19.2072 6.21701L19.9977 8.91783L11.5938 13.6304C11.3352 13.7753 11.2441 14.1009 11.3895 14.3579C11.5353 14.6141 11.8629 14.7046 12.1208 14.5605L12.1209 14.5604ZM22.4902 4.52154L24.6424 6.25804L23.9674 8.56475H21.0139L20.3389 6.25804L22.4902 4.52154Z" fill="#4692FE"/>
</svg>
