<svg width="28" height="28" viewBox="0 0 28 28" fill="none" xmlns="http://www.w3.org/2000/svg">
<path d="M14.4323 2.5075L24.9323 6.70747C25.3406 6.8708 25.6673 7.3608 25.6673 7.79246V11.6658C25.6673 12.3075 25.1423 12.8325 24.5007 12.8325H3.50065C2.85898 12.8325 2.33398 12.3075 2.33398 11.6658V7.79246C2.33398 7.3608 2.66066 6.8708 3.06899 6.70747L13.569 2.5075C13.8023 2.41417 14.199 2.41417 14.4323 2.5075Z" stroke="#4692FE" stroke-miterlimit="10" stroke-linecap="round" stroke-linejoin="round"/>
<path d="M25.6673 25.6667H2.33398V22.1667C2.33398 21.525 2.85898 21 3.50065 21H24.5007C25.1423 21 25.6673 21.525 25.6673 22.1667V25.6667Z" stroke="#4692FE" stroke-miterlimit="10" stroke-linecap="round" stroke-linejoin="round"/>
<path d="M4.66602 20.9987V12.832" stroke="#4692FE" stroke-miterlimit="10" stroke-linecap="round" stroke-linejoin="round"/>
<path d="M9.33398 20.9987V12.832" stroke="#4692FE" stroke-miterlimit="10" stroke-linecap="round" stroke-linejoin="round"/>
<path d="M14 20.9987V12.832" stroke="#4692FE" stroke-miterlimit="10" stroke-linecap="round" stroke-linejoin="round"/>
<path d="M18.666 20.9987V12.832" stroke="#4692FE" stroke-miterlimit="10" stroke-linecap="round" stroke-linejoin="round"/>
<path d="M23.334 20.9987V12.832" stroke="#4692FE" stroke-miterlimit="10" stroke-linecap="round" stroke-linejoin="round"/>
<path d="M1.16602 25.668H26.8327" stroke="#4692FE" stroke-miterlimit="10" stroke-linecap="round" stroke-linejoin="round"/>
<path d="M14 9.91797C14.9665 9.91797 15.75 9.13447 15.75 8.16797C15.75 7.20147 14.9665 6.41797 14 6.41797C13.0335 6.41797 12.25 7.20147 12.25 8.16797C12.25 9.13447 13.0335 9.91797 14 9.91797Z" stroke="#4692FE" stroke-miterlimit="10" stroke-linecap="round" stroke-linejoin="round"/>
</svg>
