<svg width="960" height="1080" viewBox="0 0 960 1080" fill="none" xmlns="http://www.w3.org/2000/svg">
<g opacity="0.5" filter="url(#filter0_f_1409_55570)">
<path d="M643.777 39.4266C847.054 160.061 873.788 267.056 703.488 278.407C533.189 289.757 230.344 201.165 27.0667 80.5299C-176.211 -40.1047 -202.945 -147.1 -32.645 -158.45C137.655 -169.8 440.499 -81.208 643.777 39.4266ZM142.623 72.8281C269.722 148.255 459.075 203.647 565.555 196.55C672.035 189.453 655.319 122.555 528.22 47.1283C401.121 -28.2983 211.768 -83.6906 105.288 -76.5938C-1.1913 -69.497 15.524 -2.59853 142.623 72.8281Z" fill="white" fill-opacity="0.2"/>
</g>
<g opacity="0.5" filter="url(#filter1_f_1409_55570)">
<path d="M1133.46 1223.79C1300.6 1390.93 1228.18 1487.89 971.692 1440.36C715.206 1392.82 371.786 1218.79 204.642 1051.64C37.4973 884.497 109.923 787.536 366.408 835.073C622.894 882.61 966.314 1056.64 1133.46 1223.79ZM360.332 1080.5C471.442 1191.61 699.733 1307.3 870.233 1338.9C1040.73 1370.5 1088.88 1306.04 977.768 1194.93C866.658 1083.82 638.368 968.132 467.867 936.532C297.367 904.931 249.222 969.387 360.332 1080.5Z" fill="white" fill-opacity="0.2"/>
</g>
<g filter="url(#filter2_f_1409_55570)">
<path d="M567.5 922L249 951.5L-62 904.5L-0.5 856H337L567.5 922Z" fill="black" fill-opacity="0.28"/>
</g>
<defs>
<filter id="filter0_f_1409_55570" x="-148.752" y="-163.43" width="968.348" height="446.816" filterUnits="userSpaceOnUse" color-interpolation-filters="sRGB">
<feFlood flood-opacity="0" result="BackgroundImageFix"/>
<feBlend mode="normal" in="SourceGraphic" in2="BackgroundImageFix" result="shape"/>
<feGaussianBlur stdDeviation="2" result="effect1_foregroundBlur_1409_55570"/>
</filter>
<filter id="filter1_f_1409_55570" x="110.669" y="818.99" width="1116.76" height="637.449" filterUnits="userSpaceOnUse" color-interpolation-filters="sRGB">
<feFlood flood-opacity="0" result="BackgroundImageFix"/>
<feBlend mode="normal" in="SourceGraphic" in2="BackgroundImageFix" result="shape"/>
<feGaussianBlur stdDeviation="2" result="effect1_foregroundBlur_1409_55570"/>
</filter>
<filter id="filter2_f_1409_55570" x="-114" y="804" width="733.5" height="199.5" filterUnits="userSpaceOnUse" color-interpolation-filters="sRGB">
<feFlood flood-opacity="0" result="BackgroundImageFix"/>
<feBlend mode="normal" in="SourceGraphic" in2="BackgroundImageFix" result="shape"/>
<feGaussianBlur stdDeviation="26" result="effect1_foregroundBlur_1409_55570"/>
</filter>
</defs>
</svg>
