<svg width="56" height="56" viewBox="0 0 56 56" fill="none" xmlns="http://www.w3.org/2000/svg">
<path d="M23.333 16.333V19.833" stroke="#BBBBC7" stroke-width="1.5" stroke-miterlimit="10" stroke-linecap="round" stroke-linejoin="round"/>
<path d="M32.667 16.333V19.833" stroke="#BBBBC7" stroke-width="1.5" stroke-miterlimit="10" stroke-linecap="round" stroke-linejoin="round"/>
<path d="M18.083 24.6055H37.9163" stroke="#BBBBC7" stroke-width="1.5" stroke-miterlimit="10" stroke-linecap="round" stroke-linejoin="round"/>
<path d="M39.6663 36.1667C39.6663 37.0417 39.4213 37.87 38.9897 38.57C38.1847 39.9233 36.703 40.8333 34.9997 40.8333C33.8213 40.8333 32.748 40.4017 31.9313 39.6667C31.5697 39.3633 31.2547 38.99 31.0097 38.57C30.578 37.87 30.333 37.0417 30.333 36.1667C30.333 33.5883 32.4213 31.5 34.9997 31.5C36.3997 31.5 37.648 32.1183 38.4997 33.0866C39.223 33.915 39.6663 34.9883 39.6663 36.1667Z" stroke="#BBBBC7" stroke-width="1.5" stroke-miterlimit="10" stroke-linecap="round" stroke-linejoin="round"/>
<path d="M33.1797 36.1668L34.3347 37.3218L36.8197 35.0234" stroke="#BBBBC7" stroke-width="1.5" stroke-linecap="round" stroke-linejoin="round"/>
<path d="M38.5 23.9163V33.0863C37.6483 32.118 36.4 31.4997 35 31.4997C32.4217 31.4997 30.3333 33.588 30.3333 36.1663C30.3333 37.0413 30.5783 37.8697 31.01 38.5697C31.255 38.9897 31.57 39.363 31.9317 39.6663H23.3333C19.25 39.6663 17.5 37.333 17.5 33.833V23.9163C17.5 20.4163 19.25 18.083 23.3333 18.083H32.6667C36.75 18.083 38.5 20.4163 38.5 23.9163Z" stroke="#BBBBC7" stroke-width="1.5" stroke-miterlimit="10" stroke-linecap="round" stroke-linejoin="round"/>
<path d="M27.9949 29.9837H28.0054" stroke="#BBBBC7" stroke-width="2" stroke-linecap="round" stroke-linejoin="round"/>
<path d="M23.6765 29.9837H23.687" stroke="#BBBBC7" stroke-width="2" stroke-linecap="round" stroke-linejoin="round"/>
<path d="M23.6765 33.4837H23.687" stroke="#BBBBC7" stroke-width="2" stroke-linecap="round" stroke-linejoin="round"/>
</svg>
