<svg width="40" height="40" viewBox="0 0 40 40" fill="none" xmlns="http://www.w3.org/2000/svg">
<path d="M33.4815 32.963H31.8222V14.8148C31.8222 14.6074 31.7185 14.4 31.5111 14.4L25.6 11.3926V6.51852C25.6 6.38102 25.5454 6.24907 25.4481 6.15185C25.3509 6.05463 25.219 6 25.0815 6H14.7111C14.4248 6 14.1926 6.23218 14.1926 6.51852V11.3926L8.28148 14.4C8.07407 14.4 7.97037 14.6074 7.97037 14.8148V32.963H6.51852C6.23218 32.963 6 33.1951 6 33.4815C6 33.7678 6.23218 34 6.51852 34H33.4815C33.7678 34 34 33.7678 34 33.4815C34 33.1951 33.7678 32.963 33.4815 32.963ZM14.1926 32.963H12.1185V28.4C12.1185 28.1137 11.8863 27.8815 11.6 27.8815C11.3137 27.8815 11.0815 28.1137 11.0815 28.4V32.963H9.00741V15.1259L14.1926 12.5333V32.963ZM20.9333 32.963H18.8593V27.7778H20.9333V32.963ZM24.563 11.7037V32.963H21.9704V27.2593C21.9704 27.1218 21.9157 26.9898 21.8185 26.8926C21.7213 26.7954 21.5894 26.7407 21.4519 26.7407H18.3407C18.0544 26.7407 17.8222 26.9729 17.8222 27.2593V32.963H15.2296V7.03704H24.563V11.7037ZM30.7852 32.963H28.7111V28.4C28.7111 28.1137 28.4789 27.8815 28.1926 27.8815C27.9063 27.8815 27.6741 28.1137 27.6741 28.4V32.963H25.6V12.5333L30.7852 15.1259V32.963Z" fill="#4692FE"/>
<path d="M19.8944 14.2966C20.4444 14.2966 20.972 14.0781 21.3611 13.6892C21.7499 13.3001 21.9685 12.7725 21.9685 12.2225C21.9685 11.6725 21.7499 11.1449 21.3611 10.7558C20.9719 10.367 20.4444 10.1484 19.8944 10.1484C19.3444 10.1484 18.8168 10.367 18.4277 10.7558C18.0388 11.145 17.8203 11.6725 17.8203 12.2225C17.8203 12.7725 18.0388 13.3001 18.4277 13.6892C18.8168 14.0781 19.3444 14.2966 19.8944 14.2966ZM19.8944 11.1855C20.1784 11.1517 20.4622 11.2501 20.6645 11.4524C20.8668 11.6547 20.9652 11.9385 20.9314 12.2225C20.9314 12.5931 20.7337 12.9355 20.4129 13.1206C20.0921 13.3058 19.6967 13.3058 19.3759 13.1206C19.055 12.9355 18.8573 12.5931 18.8573 12.2225C18.8235 11.9385 18.9219 11.6547 19.1242 11.4524C19.3266 11.2501 19.6104 11.1517 19.8944 11.1855H19.8944Z" fill="#4692FE"/>
<path d="M19.8944 22.0739C20.4444 22.0739 20.972 21.8554 21.3611 21.4665C21.7499 21.0774 21.9685 20.5498 21.9685 19.9999C21.9685 19.4499 21.7499 18.9223 21.3611 18.5332C20.9719 18.1443 20.4444 17.9258 19.8944 17.9258C19.3444 17.9258 18.8168 18.1443 18.4277 18.5332C18.0388 18.9223 17.8203 19.4499 17.8203 19.9999C17.8203 20.5498 18.0388 21.0774 18.4277 21.4665C18.8168 21.8554 19.3444 22.0739 19.8944 22.0739ZM19.8944 18.9628C20.1694 18.9628 20.4333 19.0721 20.6277 19.2665C20.8222 19.461 20.9314 19.7249 20.9314 19.9999C20.9314 20.2749 20.8222 20.5387 20.6277 20.7332C20.4333 20.9276 20.1694 21.0369 19.8944 21.0369C19.6194 21.0369 19.3555 20.9276 19.1611 20.7332C18.9666 20.5387 18.8573 20.2749 18.8573 19.9999C18.8236 19.7158 18.9219 19.432 19.1242 19.2297C19.3266 19.0274 19.6104 18.929 19.8944 18.9628L19.8944 18.9628Z" fill="#4692FE"/>
<path d="M26.9482 19.8964H29.4371C29.5746 19.8964 29.7065 19.8418 29.8038 19.7446C29.901 19.6473 29.9556 19.5154 29.9556 19.3779C29.9556 19.2404 29.901 19.1084 29.8038 19.0112C29.7065 18.914 29.5746 18.8594 29.4371 18.8594H26.9482C26.6619 18.8594 26.4297 19.0916 26.4297 19.3779C26.4297 19.5154 26.4843 19.6473 26.5815 19.7446C26.6788 19.8418 26.8107 19.8964 26.9482 19.8964Z" fill="#4692FE"/>
<path d="M26.9482 23.1113H29.4371C29.7234 23.1113 29.9556 22.8791 29.9556 22.5927C29.9556 22.3064 29.7234 22.0742 29.4371 22.0742H26.9482C26.6619 22.0742 26.4297 22.3064 26.4297 22.5927C26.4297 22.8791 26.6619 23.1113 26.9482 23.1113Z" fill="#4692FE"/>
<path d="M10.3545 19.8964H12.8433C12.9808 19.8964 13.1128 19.8418 13.21 19.7446C13.3072 19.6473 13.3619 19.5154 13.3619 19.3779C13.3619 19.2404 13.3072 19.1084 13.21 19.0112C13.1128 18.914 12.9808 18.8594 12.8433 18.8594H10.3545C10.0681 18.8594 9.83594 19.0916 9.83594 19.3779C9.83594 19.5154 9.89057 19.6473 9.98779 19.7446C10.085 19.8418 10.217 19.8964 10.3545 19.8964Z" fill="#4692FE"/>
<path d="M10.3545 23.1113H12.8433C13.1297 23.1113 13.3619 22.8791 13.3619 22.5927C13.3619 22.3064 13.1297 22.0742 12.8433 22.0742H10.3545C10.0681 22.0742 9.83594 22.3064 9.83594 22.5927C9.83594 22.8791 10.0681 23.1113 10.3545 23.1113Z" fill="#4692FE"/>
</svg>
