<svg width="56" height="56" viewBox="0 0 56 56" fill="none" xmlns="http://www.w3.org/2000/svg">
<rect width="56" height="56" rx="6" fill="#4692FE"/>
<path d="M39.6667 23.9397V18.643C39.6667 16.998 38.92 16.333 37.065 16.333H32.3517C30.4967 16.333 29.75 16.998 29.75 18.643V23.928C29.75 25.5847 30.4967 26.238 32.3517 26.238H37.065C38.92 26.2497 39.6667 25.5847 39.6667 23.9397Z" stroke="white" stroke-width="1.5" stroke-linecap="round" stroke-linejoin="round"/>
<path d="M39.6667 37.065V32.3517C39.6667 30.4967 38.92 29.75 37.065 29.75H32.3517C30.4967 29.75 29.75 30.4967 29.75 32.3517V37.065C29.75 38.92 30.4967 39.6667 32.3517 39.6667H37.065C38.92 39.6667 39.6667 38.92 39.6667 37.065Z" stroke="white" stroke-width="1.5" stroke-linecap="round" stroke-linejoin="round"/>
<path d="M26.2497 23.9397V18.643C26.2497 16.998 25.503 16.333 23.648 16.333H18.9347C17.0797 16.333 16.333 16.998 16.333 18.643V23.928C16.333 25.5847 17.0797 26.238 18.9347 26.238H23.648C25.503 26.2497 26.2497 25.5847 26.2497 23.9397Z" stroke="white" stroke-width="1.5" stroke-linecap="round" stroke-linejoin="round"/>
<path d="M26.2497 37.065V32.3517C26.2497 30.4967 25.503 29.75 23.648 29.75H18.9347C17.0797 29.75 16.333 30.4967 16.333 32.3517V37.065C16.333 38.92 17.0797 39.6667 18.9347 39.6667H23.648C25.503 39.6667 26.2497 38.92 26.2497 37.065Z" stroke="white" stroke-width="1.5" stroke-linecap="round" stroke-linejoin="round"/>
</svg>
