<svg width="4.4rem" height="4.4rem" viewBox="0 0 44 44" fill="none" xmlns="http://www.w3.org/2000/svg">
<path d="M28.4626 26.7571C27.9226 26.6098 27.5791 26.1188 27.4809 25.5788L27.1864 23.1732C27.7264 22.6822 28.1192 22.1915 28.2664 21.7498C28.4626 21.2587 28.6591 20.7187 28.8064 20.1297C30.5737 19.2463 31.85 17.3807 31.9972 15.4168C32.0461 14.6806 31.8989 14.1405 31.5554 13.7478C31.1626 13.306 30.5243 13.0605 29.8864 13.1095C29.8374 13.1095 29.7391 13.1095 29.6902 13.1584C29.6902 13.0602 29.7391 12.9622 29.7391 12.8146C29.9354 11.5383 30.1809 10.0656 30.0336 8.83831C29.8864 7.41484 29.1502 6.1382 27.8735 5.10745C26.5972 4.02744 25.0262 3.43843 23.1606 3.29115C22.8168 3.29115 22.2771 3.24219 21.9333 3.24219C21.5895 3.24219 21.0498 3.24219 20.706 3.29115C19.7732 3.34012 18.7914 4.0767 18.3987 4.37117C17.6625 4.37117 16.288 4.42013 15.7969 4.86222C14.7169 5.79505 14.0296 7.16952 13.8334 8.78962C13.7351 9.86964 13.9317 11.048 14.1279 12.1277C14.1768 12.4715 14.2751 12.8149 14.3241 13.1094C14.2258 13.1094 14.1279 13.0604 14.0296 13.0604C13.3913 13.0115 12.7533 13.2567 12.3606 13.6987C12.0168 14.0915 11.8695 14.6316 11.9188 15.3678C12.0661 17.3312 13.3423 19.1969 15.1096 20.0807C15.2569 20.6697 15.4534 21.2097 15.6496 21.7007C15.7479 21.9952 15.9934 22.2897 16.2879 22.6335C16.4352 22.7808 16.5824 22.928 16.779 23.1246L16.4845 25.5302C16.4355 26.0702 16.0427 26.5119 15.5027 26.7085C11.4771 27.9847 6.61719 29.9976 6.61719 32.5504V40.6997H37.3484L37.3481 32.5991C37.3481 30.0462 32.5369 27.9844 28.4625 26.7571L28.4626 26.7571ZM29.9843 14.1406C30.2788 14.1406 30.6226 14.2389 30.8189 14.4351C30.9661 14.6313 31.0151 14.9261 31.0151 15.3679C30.9168 16.6935 30.1806 17.9697 29.1495 18.8042C29.2478 17.9697 29.395 16.8407 29.444 15.9569C29.493 15.4169 29.5423 14.9752 29.5423 14.6314C29.5913 14.4351 29.6406 14.3369 29.6406 14.2875C29.7388 14.19 29.8371 14.1406 29.9844 14.1406L29.9843 14.1406ZM14.8642 8.93698C15.0114 7.56242 15.6004 6.38414 16.4842 5.64785C16.6804 5.5006 17.6625 5.35336 18.6443 5.35336H18.8405L18.9878 5.20611C19.2823 4.96058 20.1661 4.27328 20.8533 4.22437C21.1478 4.22437 21.6878 4.1754 22.0316 4.1754C22.3754 4.1754 22.8661 4.1754 23.2099 4.22437C24.8789 4.32265 26.2535 4.86266 27.3828 5.79547C28.4139 6.67894 29.0519 7.75895 29.1991 8.88832C29.2974 9.67386 29.1991 10.6067 29.0519 11.5391C28.9046 11.1953 28.7081 10.8028 28.6591 10.6556V10.0666L28.0701 10.1649C28.0212 10.1649 23.21 11.0977 20.1174 9.47763L19.9212 9.37935L19.725 9.42832C19.4794 9.47729 19.2339 9.57557 18.9394 9.62454C17.9083 9.91903 16.9759 10.1646 15.9938 10.1646H15.5027V10.6556C15.4537 10.7539 15.3065 11.0974 15.1589 11.4412C14.913 10.606 14.7658 9.72252 14.8641 8.93697L14.8642 8.93698ZM12.9496 15.3679C12.9006 14.9261 12.9986 14.6316 13.1458 14.435C13.2931 14.2388 13.6369 14.1405 13.8821 14.1405H13.931C14.0783 14.1405 14.2255 14.1895 14.2748 14.2878C14.3238 14.3368 14.3731 14.435 14.3731 14.6316C14.4221 15.3678 14.6186 17.4789 14.8149 18.7552C13.7841 17.9697 13.0476 16.6934 12.9496 15.3678L12.9496 15.3679ZM15.9932 19.4425L15.4532 14.5333L15.3549 13.6005V13.355C15.4039 13.1587 15.6987 12.6187 15.8459 12.2259C16.0422 11.7842 16.1898 11.4897 16.2877 11.2931C17.2694 11.2442 18.2023 10.9986 19.135 10.7531C19.3312 10.7041 19.5278 10.6548 19.724 10.6058C22.6203 12.0293 26.4494 11.5876 27.726 11.3914C27.8243 11.5876 27.9715 11.8824 28.1677 12.2749C28.3639 12.6676 28.6588 13.2566 28.7077 13.4039V13.6494L28.6095 14.5822L28.855 14.6312H28.6095C28.5605 14.9257 28.5605 15.4167 28.5112 15.9568C28.3639 17.3802 28.1184 19.2948 28.0694 19.5403C27.8732 20.2276 27.6767 20.8659 27.4311 21.5038C26.9894 22.5349 24.4855 24.4001 22.0309 24.4001C20.1164 24.4001 18.1035 23.2711 17.1218 22.1417C16.8762 21.8473 16.729 21.6017 16.68 21.5035C16.3859 20.8169 16.1404 20.1789 15.9931 19.4423L15.9932 19.4425ZM21.9823 25.3333C23.5534 25.3333 25.1242 24.695 26.3025 23.9099L26.548 25.7262C26.548 25.8734 26.597 26.0207 26.6463 26.1679L21.9827 31.1261L17.4174 26.2659C17.4663 26.1187 17.5156 25.9221 17.5156 25.7749L17.7612 23.9586C18.8895 24.6955 20.4112 25.3335 21.9823 25.3335L21.9823 25.3333ZM36.317 39.7662H7.64765V32.599C7.64765 31.3228 9.95495 29.8007 13.7841 28.3772V30.2427C11.7222 30.5372 10.2495 32.6483 10.2495 35.3974C10.2495 35.7902 10.3967 36.183 10.544 36.5757C10.495 36.674 10.495 36.8212 10.495 36.9685C10.495 37.6068 11.035 38.1468 11.6733 38.1468C12.3116 38.1468 12.8516 37.6068 12.8516 36.9685C12.8516 36.3302 12.3116 35.7902 11.6733 35.7902C11.575 35.7902 11.4771 35.7902 11.3788 35.8392C11.3298 35.6919 11.2805 35.5447 11.2805 35.4464C11.2805 33.0408 12.6061 31.2735 14.3241 31.2735C16.0425 31.2735 17.3677 33.0897 17.3677 35.4464C17.3677 35.5936 17.3187 35.6919 17.2694 35.8881C17.1711 35.8392 17.0732 35.8392 16.9256 35.8392C16.2873 35.8392 15.7473 36.3792 15.7473 37.0175C15.7473 37.6557 16.2873 38.1957 16.9256 38.1957C17.5639 38.1957 18.1039 37.6557 18.1039 37.0175C18.1039 36.8702 18.1039 36.7719 18.0549 36.6737C18.2022 36.2809 18.3494 35.8881 18.3494 35.4954C18.3494 32.7463 16.8766 30.6352 14.8148 30.3407V28.1317C15.1586 28.0334 15.4531 27.9354 15.7966 27.8372C16.1894 27.7389 16.5328 27.4934 16.7783 27.2482L21.933 32.7463L27.1366 27.1989C27.4311 27.4934 27.7749 27.7389 28.1677 27.8862C28.6094 28.0334 29.0512 28.1807 29.444 28.3279H29.395V32.157C28.315 32.4026 27.5295 33.3353 27.5295 34.4643C27.5295 35.7899 28.6095 36.8206 29.8858 36.8206C31.2113 36.8206 32.2421 35.7406 32.2421 34.4643C32.2421 33.3353 31.4565 32.3536 30.3765 32.157V28.6714C34.0584 30.0459 36.2674 31.5677 36.2674 32.795L36.2681 39.7662L36.317 39.7662ZM29.9351 32.9425C30.6713 32.9425 31.3096 33.5315 31.3096 34.3171C31.3096 35.0533 30.7206 35.6916 29.9351 35.6916C29.1988 35.6916 28.5605 35.1026 28.5605 34.3171C28.5605 33.5808 29.1499 32.9425 29.9351 32.9425Z" fill="#4692FE"/>
</svg>
