<svg width="4.4rem" height="4.4rem" viewBox="0 0 44 44" fill="none" xmlns="http://www.w3.org/2000/svg">
<path d="M28.7099 14.3683C28.7099 14.7186 28.4259 15.0026 28.0757 15.0026C27.7254 15.0026 27.4414 14.7186 27.4414 14.3683C27.4414 14.0183 27.7254 13.7344 28.0757 13.7344C28.4259 13.7344 28.7099 14.0183 28.7099 14.3683Z" fill="#4692FE"/>
<path d="M27.5206 11.3601C27.5278 11.3584 28.36 11.226 28.9284 11.627C28.9839 11.6663 29.0477 11.685 29.1106 11.685C29.2101 11.685 29.3085 11.6384 29.3701 11.5507C29.471 11.4074 29.4367 11.2099 29.2937 11.1087C28.5026 10.5514 27.4545 10.728 27.4105 10.7356C27.238 10.7659 27.1229 10.9303 27.1533 11.1028C27.184 11.2751 27.3478 11.3904 27.5206 11.3601Z" fill="#4692FE"/>
<path d="M22.3659 14.3683C22.3659 14.7186 22.0819 15.0026 21.7316 15.0026C21.3816 15.0026 21.0977 14.7186 21.0977 14.3683C21.0977 14.0183 21.3816 13.7344 21.7316 13.7344C22.0819 13.7344 22.3659 14.0183 22.3659 14.3683Z" fill="#4692FE"/>
<path d="M20.6927 11.685C20.7557 11.685 20.8195 11.6663 20.875 11.627C21.4477 11.2235 22.2756 11.3587 22.2837 11.3603C22.4548 11.3899 22.6197 11.2751 22.6498 11.1028C22.6805 10.9303 22.5651 10.7659 22.3926 10.7356C22.3483 10.728 21.3003 10.5514 20.5094 11.1087C20.3664 11.2096 20.3319 11.4074 20.4331 11.5507C20.4949 11.6382 20.5933 11.685 20.6928 11.685H20.6927Z" fill="#4692FE"/>
<path d="M28.7073 26.6213L28.6881 26.6118C28.6727 26.5814 28.6544 26.5522 28.6298 26.5274L27.1894 25.0936V23.759C29.2301 22.9913 30.8369 21.3686 31.5166 20.2358C31.7016 19.927 31.8752 19.55 32.0349 19.118C32.969 19.1047 33.8477 18.4258 34.23 17.3858C34.716 16.0636 34.2041 14.6264 33.088 14.182C33.0694 14.1747 33.0487 14.1689 33.0295 14.1619C33.1061 13.3028 33.1471 12.4099 33.1471 11.5118C33.1471 11.3613 33.1426 11.2013 33.1357 11.0322C33.1502 11.0328 33.1641 11.0369 33.1789 11.0369C33.3285 11.0369 33.4795 11.0015 33.6192 10.9269L33.4701 10.6468L33.6348 10.9185C33.8831 10.7864 34.0581 10.5529 34.1152 10.2778C34.1723 10.0031 34.1041 9.71993 33.9288 9.50037C33.6501 9.1512 33.2589 8.73818 32.7411 8.32134L32.6868 8.12572C32.0486 5.83814 30.1896 2 24.9036 2C19.6178 2 17.7583 5.83814 17.1198 8.12992L17.0632 8.342C16.5128 8.77951 16.1244 9.19557 15.8825 9.49734C15.7058 9.71776 15.6378 10.002 15.6946 10.2779C15.752 10.5538 15.9276 10.7873 16.1957 10.9288C16.3462 11.008 16.5109 11.042 16.6725 11.0347C16.6661 11.1961 16.6597 11.3583 16.6597 11.5118C16.6597 12.41 16.7006 13.3026 16.7773 14.1619C16.758 14.1689 16.7371 14.1742 16.7182 14.182C15.6024 14.6265 15.0905 16.0639 15.5765 17.3856C15.9588 18.4261 16.8372 19.1047 17.7716 19.1181C17.9313 19.55 18.1049 19.9273 18.2899 20.2358C18.9696 21.3689 20.5767 22.9913 22.6171 23.7591V25.0978L21.1488 26.553C21.1281 26.5736 21.1114 26.5968 21.0972 26.6216C19.2081 27.5635 16.5819 29.4771 14.6401 33.2475L12.0906 28.3786C12.0262 28.2562 11.8911 28.188 11.7542 28.2133C11.618 28.2373 11.5132 28.3468 11.4956 28.4842C11.4299 28.983 11.1292 29.4673 10.7251 29.9096C10.0836 29.7028 9.01544 29.992 7.99443 30.669C6.82011 31.4481 5.84725 32.6913 6.35804 33.4618C6.36278 33.469 6.3703 33.4738 6.3756 33.481C6.37922 33.4857 6.38034 33.4916 6.38424 33.4958L12.406 40.336L12.3637 40.5963C12.3132 40.9215 12.2664 41.254 12.224 41.5934C12.224 41.5948 12.2243 41.5956 12.2243 41.5965C12.2193 41.6397 12.2229 41.6826 12.2355 41.7235C12.238 41.7322 12.2447 41.7391 12.2477 41.7475C12.26 41.779 12.2748 41.8088 12.2968 41.835C12.2984 41.8372 12.299 41.84 12.3007 41.842C12.3107 41.8534 12.3252 41.8587 12.3366 41.8682C12.3531 41.8824 12.3667 41.8994 12.3865 41.91C12.3912 41.9125 12.3965 41.9136 12.4013 41.9156C12.408 41.9186 12.4144 41.9206 12.4211 41.9231C12.4595 41.9387 12.4988 41.9484 12.5381 41.9484H12.5384H37.2697C37.3608 41.9484 37.4472 41.9094 37.5074 41.8411C37.5673 41.7729 37.5954 41.6823 37.584 41.592C36.422 32.2979 32.1162 28.3207 28.7079 26.6214L28.7073 26.6213ZM27.0431 29.0775C27.0116 29.0427 26.9745 29.0126 26.9283 28.9933C26.9221 28.9908 26.9163 28.9919 26.9102 28.9897L25.3502 27.9661L26.9166 25.7156L28.0605 26.8545L27.5266 29.3944L27.0431 29.0775ZM18.5622 11.5116C18.5622 11.3544 18.5664 11.1919 18.5731 11.0378L18.708 9.49174C19.3634 9.05284 20.2523 8.61897 21.4208 8.32327C21.8678 8.76998 23.342 10.1416 24.5998 10.1416C24.7066 10.1416 24.8066 10.0878 24.8651 9.99834C24.9237 9.90889 24.9334 9.79575 24.8905 9.69766L24.7969 9.48392C25.396 9.70434 26.2406 9.961 26.8885 9.92533C26.995 9.91976 27.0914 9.86096 27.1455 9.76928C27.1717 9.72413 27.1864 9.67453 27.189 9.62381C27.8491 10.0131 28.7659 10.471 29.5986 10.5969C29.6145 10.5995 29.6306 10.6006 29.646 10.6006C29.7616 10.6006 29.87 10.537 29.926 10.4328C29.989 10.3141 29.9706 10.1686 29.8801 10.0694C29.4501 9.59931 28.8838 8.88811 28.5882 8.36705C29.6413 8.65213 30.4572 9.04895 31.0686 9.45333L31.2333 11.0181C31.2411 11.187 31.2453 11.3517 31.2453 11.5111C31.2453 15.1081 30.5617 18.13 29.8859 19.2557C29.4696 19.9493 28.6618 20.7978 27.6566 21.4215C27.5995 21.4377 27.5479 21.4661 27.5075 21.5109C26.7208 21.973 25.8249 22.2918 24.9033 22.2918C22.723 22.2918 20.6776 20.5169 19.9212 19.2565C19.2457 18.1307 18.5622 15.1084 18.5622 11.5111L18.5622 11.5116ZM28.6561 22.2803C28.5976 22.0919 28.4964 21.8965 28.3284 21.7296C29.2717 21.0747 30.0221 20.2619 30.4292 19.5833C31.0685 18.5182 31.7131 15.9124 31.851 12.7467C32.111 12.8386 32.3317 12.9543 32.4708 13.0365C32.3173 15.9274 31.7451 18.623 30.973 19.9096C30.5463 20.6205 29.7259 21.5409 28.6561 22.2802L28.6561 22.2803ZM33.6351 17.1672C33.382 17.855 32.8389 18.3412 32.2545 18.4544C32.5647 17.4297 32.8082 16.1849 32.9612 14.8303C33.6805 15.2015 33.9862 16.2128 33.635 17.1672H33.6351ZM31.8992 7.72542C30.6815 6.96323 28.9604 6.29442 26.5836 6.10858V2.78658C29.7019 3.38154 31.1908 5.62761 31.8992 7.72542ZM23.2229 2.78658V6.11421C20.8306 6.31179 19.1 7.0051 17.897 7.75559C18.6015 5.64944 20.0901 3.38462 23.2229 2.78665V2.78658ZM16.4733 10.3578C16.3612 10.2988 16.3261 10.2015 16.3153 10.1488C16.3041 10.0959 16.2974 9.99251 16.3769 9.89358C17.1658 8.90903 19.5498 6.62894 24.7742 6.68801L25.2605 6.68662C30.3217 6.68662 32.6613 8.93103 33.4318 9.89633C33.5101 9.99442 33.5036 10.097 33.4925 10.1496C33.4814 10.2026 33.4465 10.2996 33.3356 10.3586L33.32 10.367L33.3197 10.3673C33.189 10.4367 33.0271 10.4021 32.9346 10.2854C32.6838 9.97018 32.246 9.50704 31.5783 9.04027C31.5646 9.02801 31.5499 9.01881 31.5343 9.00878C30.7548 8.47234 29.6625 7.9384 28.1813 7.61851C28.1626 7.61182 28.1429 7.60987 28.1228 7.60681C27.2904 7.43153 26.3432 7.32117 25.253 7.32117L24.7698 7.32257C23.4784 7.30668 22.376 7.44379 21.4316 7.66728C21.4205 7.67034 21.4096 7.67146 21.399 7.67564C20.0129 8.00837 18.981 8.5295 18.2364 9.04807C18.2211 9.05782 18.206 9.06646 18.1926 9.07844C17.5534 9.53017 17.1265 9.97518 16.8773 10.2826C16.7808 10.4019 16.6215 10.4367 16.4726 10.3578L16.4733 10.3578ZM16.1718 17.1666C15.8206 16.2124 16.1263 15.2005 16.8453 14.8299C16.9986 16.1839 17.2418 17.4285 17.552 18.4529C16.9701 18.3386 16.4242 17.854 16.1717 17.1666H16.1718ZM18.8339 19.9089C18.0625 18.6232 17.4904 15.9315 17.3363 13.0428C17.4726 12.962 17.6936 12.8444 17.9558 12.7505C18.094 15.9142 18.7386 18.5184 19.3773 19.5829C19.7822 20.2575 20.5271 21.0648 21.4626 21.7178C21.292 21.883 21.1886 22.077 21.1281 22.2651C20.0692 21.5286 19.2574 20.6154 18.8339 19.9089L18.8339 19.9089ZM24.9033 24.194C25.4726 24.194 26.0257 24.1104 26.5549 23.9661V25.1253L24.903 27.4982L23.2516 25.1301V23.9661C23.7808 24.1105 24.3337 24.1941 24.9033 24.1941V24.194ZM22.8899 25.7203L24.4554 27.9659L22.2517 29.3977L21.718 26.8818L22.8899 25.7203ZM15.0439 33.8466C16.8444 30.171 19.3199 28.2693 21.1594 27.304L21.7273 29.9807C21.7488 30.0826 21.8196 30.1676 21.9162 30.2078C21.9553 30.2239 21.9965 30.2317 22.0377 30.2317C22.0979 30.2317 22.1581 30.2142 22.2105 30.1805L22.8785 29.7463C23.0652 30.1504 23.4035 30.8053 23.7892 31.1921L23.2951 38.5372C23.2901 38.6133 23.3127 38.6888 23.3587 38.7493L24.6631 40.4762C24.6704 40.4856 24.6815 40.4895 24.6893 40.4976C24.7016 40.511 24.7099 40.5266 24.7247 40.5378C24.7361 40.5464 24.7492 40.55 24.7612 40.5567C24.7721 40.5628 24.7816 40.5684 24.793 40.5732C24.8325 40.5899 24.8738 40.6016 24.9156 40.6016H24.9159H24.9162C24.958 40.6016 24.9992 40.5901 25.0388 40.5732C25.0499 40.5684 25.0597 40.5626 25.0705 40.5567C25.0825 40.55 25.0956 40.5461 25.107 40.5378C25.1218 40.5263 25.1302 40.5107 25.1424 40.4976C25.1502 40.489 25.1614 40.4856 25.1686 40.4762L26.4731 38.7493C26.5193 38.6885 26.5416 38.613 26.5366 38.5372L26.0425 31.1921C26.4201 30.8131 26.7531 30.1758 26.942 29.7703L27.5657 30.1796C27.6184 30.2142 27.6786 30.2317 27.7399 30.2317C27.7808 30.2317 27.8221 30.2239 27.8611 30.2078C27.9581 30.1679 28.0286 30.0827 28.0503 29.9798L28.6163 27.2876C30.5681 28.3028 32.7949 30.1095 34.4982 33.3231L32.5795 41.316H21.4084V40.9225C21.4084 40.1915 20.896 39.5478 20.1901 39.3915C20.1828 39.3898 20.177 39.389 20.17 39.3873C20.1332 39.035 19.985 38.6926 19.7125 38.4261C19.3376 38.0608 18.8266 37.9242 18.3469 38.0067C18.4016 37.5391 18.2525 37.052 17.8899 36.6981C17.4454 36.2645 16.809 36.1533 16.2639 36.3467L15.0023 33.9378L15.0439 33.8466ZM13.072 41.3159L14.0254 39.57C14.0254 39.5697 14.0256 39.5694 14.0256 39.5691L14.0828 39.4646C14.3625 38.953 14.7184 38.4912 15.142 38.0922L16.1207 37.1687C16.4822 36.7986 17.0771 36.7914 17.4469 37.1523C17.8167 37.5137 17.824 38.1087 17.4631 38.4785C17.4522 38.4896 17.4425 38.5013 17.4333 38.5136L16.2823 40.0998C16.1795 40.2416 16.211 40.4397 16.3531 40.5426C16.4941 40.6454 16.6931 40.6136 16.7957 40.4721L17.9335 38.9032C17.934 38.9026 17.9343 38.9018 17.9351 38.9012C17.9376 38.8987 17.9407 38.8981 17.9435 38.8956C18.3044 38.5256 18.8993 38.5183 19.2697 38.8795C19.6395 39.2406 19.6467 39.8358 19.2858 40.2057C19.2764 40.2154 19.2672 40.226 19.2591 40.2372L18.4504 41.3159L13.072 41.3159ZM13.3633 39.4594L13.0244 40.08L7.54936 33.8612C7.84169 33.8283 8.17024 33.7397 8.52415 33.5956L13.3633 39.4594ZM19.7546 40.6337C19.9232 40.4562 20.0363 40.2472 20.1062 40.0279C20.4956 40.1402 20.7742 40.5064 20.7742 40.923V41.3159H19.2429L19.7546 40.6337ZM8.3438 31.1976C9.04159 30.7348 9.69226 30.5132 10.1329 30.4745C9.06276 31.3815 7.75496 32.0066 7.73349 32.0166C7.64515 32.0584 7.58078 32.1387 7.55904 32.2345C7.53759 32.3304 7.56155 32.4302 7.6237 32.5057L8.09632 33.0786C7.44507 33.3057 7.02765 33.2581 6.90638 33.1318L6.88325 33.1057C6.71939 32.8367 7.21208 31.948 8.34378 31.1976L8.3438 31.1976ZM33.2313 41.3157L34.9373 34.2113C35.8157 36.1091 36.5166 38.4415 36.907 41.3157H33.2313Z" fill="#4692FE"/>
<path d="M28.0593 34.6561L28.0267 37.522C28.0253 37.6368 28.0863 37.7435 28.1861 37.8007L29.8818 38.7721C29.9298 38.7997 29.9838 38.8139 30.0393 38.8139H30.3636C30.4191 38.8139 30.4734 38.7997 30.5211 38.7721L32.2168 37.8007C32.3163 37.7435 32.3776 37.6368 32.3762 37.522L32.3436 34.6561C32.5131 34.6495 32.6488 34.5126 32.6488 34.3415V33.071C32.6488 32.896 32.5069 32.7539 32.3316 32.7539H28.071C27.8958 32.7539 27.7539 32.896 27.7539 33.071V34.3415C27.7539 34.5126 27.8896 34.6497 28.0593 34.6561H28.0593ZM30.2792 38.18H30.1237L28.6628 37.3429L28.6932 34.6581H31.7095L31.7399 37.3429L30.2792 38.18Z" fill="#4692FE"/>
<path d="M23.8635 15.7118C24.2074 15.8093 24.5565 15.8586 24.901 15.8586C25.2454 15.8586 25.5943 15.8093 25.9385 15.7118C26.1068 15.6641 26.2049 15.4888 26.157 15.3205C26.1093 15.1519 25.9329 15.0544 25.7657 15.102C25.19 15.265 24.612 15.265 24.036 15.102C23.8688 15.0541 23.6921 15.1519 23.6448 15.3205C23.5974 15.4888 23.6952 15.6638 23.8635 15.7118H23.8635Z" fill="#4692FE"/>
</svg>
