<svg width="26" height="26" viewBox="0 0 26 26" fill="none" xmlns="http://www.w3.org/2000/svg">
<path d="M15.7412 10.2591L10.2596 15.7407C9.5554 15.0366 9.12207 14.0724 9.12207 12.9999C9.12207 10.8549 10.8554 9.12158 13.0004 9.12158C14.0729 9.12158 15.0371 9.55492 15.7412 10.2591Z" stroke="#BBBBC7" stroke-width="1.5" stroke-linecap="round" stroke-linejoin="round"/>
<path d="M19.3048 6.25102C17.409 4.82102 15.2423 4.04102 12.9998 4.04102C9.17566 4.04102 5.6115 6.29435 3.13066 10.1943C2.15566 11.7218 2.15566 14.2893 3.13066 15.8168C3.9865 17.1602 4.98316 18.3193 6.0665 19.251" stroke="#BBBBC7" stroke-width="1.5" stroke-linecap="round" stroke-linejoin="round"/>
<path d="M9.12207 21.1575C10.3571 21.6775 11.6679 21.9592 13.0004 21.9592C16.8246 21.9592 20.3887 19.7058 22.8696 15.8058C23.8446 14.2783 23.8446 11.7108 22.8696 10.1833C22.5121 9.61999 22.1221 9.08915 21.7212 8.59082" stroke="#BBBBC7" stroke-width="1.5" stroke-linecap="round" stroke-linejoin="round"/>
<path d="M16.8021 13.7583C16.5204 15.2858 15.2746 16.5316 13.7471 16.8133" stroke="#BBBBC7" stroke-width="1.5" stroke-linecap="round" stroke-linejoin="round"/>
<path d="M10.2595 15.7407L2.16699 23.8332" stroke="#BBBBC7" stroke-width="1.5" stroke-linecap="round" stroke-linejoin="round"/>
<path d="M23.8337 2.1665L15.7412 10.259" stroke="#BBBBC7" stroke-width="1.5" stroke-linecap="round" stroke-linejoin="round"/>
</svg>
