<svg width="56" height="56" viewBox="0 0 56 56" fill="none" xmlns="http://www.w3.org/2000/svg">
<path d="M21.8164 34.9997H18.8414C17.173 34.9997 16.333 34.1596 16.333 32.4913V18.8414C16.333 17.173 17.173 16.333 18.8414 16.333H23.858C25.5264 16.333 26.3663 17.173 26.3663 18.8414V20.9997" stroke="#BBBBC7" stroke-width="1.5" stroke-miterlimit="10" stroke-linecap="round" stroke-linejoin="round"/>
<path d="M34.2647 23.8233V36.8434C34.2647 38.7217 33.3314 39.6667 31.4531 39.6667H24.6397C22.7614 39.6667 21.8164 38.7217 21.8164 36.8434V23.8233C21.8164 21.945 22.7614 21 24.6397 21H31.4531C33.3314 21 34.2647 21.945 34.2647 23.8233Z" stroke="#BBBBC7" stroke-width="1.5" stroke-miterlimit="10" stroke-linecap="round" stroke-linejoin="round"/>
<path d="M29.6338 20.9997V18.8414C29.6338 17.173 30.4737 16.333 32.1421 16.333H37.1587C38.8271 16.333 39.6671 17.173 39.6671 18.8414V32.4913C39.6671 34.1596 38.8271 34.9997 37.1587 34.9997H34.2654" stroke="#BBBBC7" stroke-width="1.5" stroke-miterlimit="10" stroke-linecap="round" stroke-linejoin="round"/>
<path d="M25.667 26.833H30.3337" stroke="#BBBBC7" stroke-width="1.5" stroke-miterlimit="10" stroke-linecap="round" stroke-linejoin="round"/>
<path d="M25.667 30.333H30.3337" stroke="#BBBBC7" stroke-width="1.5" stroke-miterlimit="10" stroke-linecap="round" stroke-linejoin="round"/>
<path d="M28 39.667V36.167" stroke="#BBBBC7" stroke-width="1.5" stroke-miterlimit="10" stroke-linecap="round" stroke-linejoin="round"/>
</svg>
