<svg width="22" height="5" viewBox="0 0 22 5" fill="none" xmlns="http://www.w3.org/2000/svg">
<path d="M11 6.25457e-08C10.6821 5.58456e-08 10.3672 0.0626235 10.0735 0.184295C9.77975 0.305967 9.51285 0.484304 9.28803 0.709124C9.06321 0.933944 8.88487 1.20084 8.7632 1.49458C8.64153 1.78833 8.57891 2.10316 8.57891 2.4211C8.57891 2.73904 8.64153 3.05387 8.7632 3.34762C8.88487 3.64136 9.06321 3.90826 9.28803 4.13308C9.51285 4.3579 9.77975 4.53623 10.0735 4.65791C10.3672 4.77958 10.6821 4.8422 11 4.8422C11.6421 4.84205 12.2579 4.58683 12.7118 4.13269C13.1658 3.67854 13.4207 3.06267 13.4206 2.42055C13.4204 1.77843 13.1652 1.16268 12.711 0.708735C12.2569 0.254794 11.641 -0.000145787 10.9989 6.25457e-08H11ZM3.30001 6.25457e-08C2.98206 5.58456e-08 2.66723 0.0626235 2.37349 0.184295C2.07975 0.305967 1.81285 0.484304 1.58803 0.709124C1.36321 0.933944 1.18487 1.20084 1.0632 1.49458C0.94153 1.78833 0.878906 2.10316 0.878906 2.4211C0.878906 2.73904 0.94153 3.05387 1.0632 3.34762C1.18487 3.64136 1.36321 3.90826 1.58803 4.13308C1.81285 4.3579 2.07975 4.53623 2.37349 4.65791C2.66723 4.77958 2.98206 4.8422 3.30001 4.8422C3.94212 4.84205 4.55788 4.58683 5.01182 4.13269C5.46576 3.67854 5.7207 3.06267 5.72056 2.42055C5.72041 1.77843 5.46519 1.16268 5.01104 0.708735C4.5569 0.254794 3.94102 -0.000145787 3.29891 6.25457e-08H3.30001ZM18.7 6.25457e-08C18.3821 5.58456e-08 18.0672 0.0626235 17.7735 0.184295C17.4797 0.305967 17.2128 0.484304 16.988 0.709124C16.7632 0.933944 16.5849 1.20084 16.4632 1.49458C16.3415 1.78833 16.2789 2.10316 16.2789 2.4211C16.2789 2.73904 16.3415 3.05387 16.4632 3.34762C16.5849 3.64136 16.7632 3.90826 16.988 4.13308C17.2128 4.3579 17.4797 4.53623 17.7735 4.65791C18.0672 4.77958 18.3821 4.8422 18.7 4.8422C19.3421 4.84205 19.9579 4.58683 20.4118 4.13269C20.8658 3.67854 21.1207 3.06267 21.1206 2.42055C21.1204 1.77843 20.8652 1.16268 20.411 0.708735C19.9569 0.254794 19.341 -0.000145787 18.6989 6.25457e-08H18.7Z" fill="#4692FE"/>
</svg>
