<svg width="30" height="28" viewBox="0 0 30 28" fill="none" xmlns="http://www.w3.org/2000/svg">
<g clip-path="url(#clip0_2666_242745)">
<path d="M29.2786 14.262C29.2786 13.1149 29.1817 12.2778 28.972 11.4097H15.3359V16.5873H23.34C23.1787 17.874 22.3073 19.8118 20.3707 21.1139L20.3436 21.2873L24.6551 24.4958L24.9538 24.5245C27.6971 22.0906 29.2786 18.5096 29.2786 14.262Z" fill="#4285F4"/>
<path d="M15.3358 27.9039C19.2571 27.9039 22.5491 26.6637 24.9536 24.5245L20.3706 21.1139C19.1442 21.9356 17.4981 22.5091 15.3358 22.5091C11.4951 22.5091 8.2354 20.0754 7.0734 16.7114L6.90308 16.7253L2.41996 20.0583L2.36133 20.2148C4.74963 24.7724 9.65539 27.9039 15.3358 27.9039Z" fill="#34A853"/>
<path d="M7.07275 16.7113C6.76614 15.8432 6.5887 14.913 6.5887 13.9519C6.5887 12.9907 6.76614 12.0606 7.05661 11.1925L7.04849 11.0076L2.50919 7.62109L2.36067 7.68896C1.37634 9.58024 0.811523 11.7041 0.811523 13.9519C0.811523 16.1997 1.37634 18.3234 2.36067 20.2147L7.07275 16.7113Z" fill="#FBBC05"/>
<path d="M15.3358 5.3947C18.0629 5.3947 19.9026 6.52635 20.9515 7.47205L25.0504 3.6275C22.5331 1.37969 19.2571 0 15.3358 0C9.65539 0 4.74963 3.1314 2.36133 7.68899L7.05727 11.1925C8.2354 7.82857 11.4951 5.3947 15.3358 5.3947Z" fill="#EB4335"/>
</g>
<defs>
<clipPath id="clip0_2666_242745">
<rect width="28.4828" height="28" fill="white" transform="translate(0.810547)"/>
</clipPath>
</defs>
</svg>
