<svg width="20" height="20" viewBox="0 0 20 20" fill="none" xmlns="http://www.w3.org/2000/svg">
<path fill-rule="evenodd" clip-rule="evenodd" d="M9.06411 0.0234702C7.11802 0.211733 5.18903 1.00295 3.67646 2.23335C3.23155 2.59528 2.52711 3.30524 2.17227 3.74944C1.27504 4.87252 0.539798 6.39166 0.234865 7.75228C0.0433717 8.60694 0 9.02241 0 10.0028C0 10.9832 0.0433717 11.3987 0.234865 12.2534C0.546453 13.6437 1.30088 15.1845 2.22793 16.3239C2.5899 16.7688 3.29993 17.4732 3.74418 17.828C4.86738 18.7251 6.38668 19.4603 7.74745 19.7652C8.60221 19.9566 9.01772 20 9.99824 20C10.9788 20 11.3943 19.9566 12.249 19.7652C13.2721 19.5359 14.6099 18.9643 15.489 18.3808C17.0137 17.3687 18.1847 16.037 18.9842 14.4061C19.4739 13.407 19.7521 12.5123 19.9273 11.3727C20.0242 10.7422 20.0242 9.26348 19.9273 8.63293C19.7521 7.49337 19.4739 6.59863 18.9842 5.59958C18.4616 4.53349 17.879 3.72243 17.038 2.89004C16.2123 2.0728 15.4559 1.53576 14.402 1.01841C13.4147 0.533777 12.5007 0.247977 11.4074 0.0819844C10.9158 0.00734452 9.57639 -0.0261202 9.06411 0.0234702ZM11.2509 0.985257C13.2389 1.27399 15.0359 2.1692 16.4343 3.56748C17.8371 4.97006 18.7063 6.71652 19.0236 8.76992C19.0701 9.07052 19.0902 9.44262 19.0902 10.0028C19.0902 11.4833 18.7994 12.7353 18.1521 14.0421C16.8088 16.7539 14.3141 18.5509 11.2313 19.0273C10.6401 19.1186 9.3564 19.1186 8.7652 19.0273C6.71158 18.7099 4.96493 17.8408 3.5622 16.4382C2.15943 15.0356 1.29019 13.2891 0.97285 11.2357C0.881487 10.6446 0.881487 9.36105 0.97285 8.76992C1.1342 7.72602 1.40786 6.84486 1.8444 5.96355C3.16367 3.30027 5.64068 1.4873 8.62694 0.999308C9.382 0.875939 10.4585 0.870146 11.2509 0.985257ZM10.59 5.04932C10.2223 5.16897 9.8684 5.50326 9.76342 5.83016C9.64054 6.21287 9.78361 6.70948 10.0957 6.98346C10.7837 7.58746 11.9409 7.32918 12.2127 6.51088C12.4573 5.77454 11.8958 5.0411 11.0606 5.00607C10.8747 4.99828 10.6967 5.01464 10.59 5.04932ZM9.29561 8.40118C9.02778 8.44847 7.95809 8.81478 7.90078 8.87885C7.8567 8.92813 7.71477 9.41565 7.73778 9.43871C7.74495 9.44587 7.86457 9.41601 8.00357 9.3724C8.54924 9.20113 9.05808 9.2805 9.19015 9.55746C9.33048 9.85167 9.26249 10.2611 8.82584 11.7521C8.48849 12.904 8.42978 13.1772 8.42367 13.6233C8.41971 13.9114 8.4351 14.0127 8.50814 14.1796C8.62346 14.443 8.90941 14.7096 9.24515 14.8667C9.48178 14.9774 9.55278 14.9912 9.96478 15.0059C10.5135 15.0254 10.7741 14.9749 11.5053 14.7075L12.0142 14.5213L12.0898 14.2588C12.1313 14.1144 12.1561 13.987 12.1448 13.9757C12.1335 13.9644 12.0466 13.9842 11.9518 14.0197C11.698 14.1148 11.0395 14.1165 10.8675 14.0225C10.4588 13.7994 10.4839 13.4231 11.0335 11.5403C11.3771 10.3633 11.4076 10.2195 11.4112 9.7604C11.4162 9.1084 11.2049 8.77047 10.6245 8.50275C10.3983 8.39841 10.3223 8.38416 9.93953 8.37445C9.70271 8.36842 9.41296 8.38048 9.29561 8.40118Z" fill="#262626"/>
</svg>
