<svg width="30" height="30" viewBox="0 0 30 30" fill="none" xmlns="http://www.w3.org/2000/svg">
<path d="M23.0873 21.0375L23.5748 24.9875C23.6998 26.025 22.5873 26.75 21.6998 26.2125L16.4623 23.1C15.8873 23.1 15.3248 23.0625 14.7748 22.9875C15.6998 21.9 16.2498 20.525 16.2498 19.0375C16.2498 15.4875 13.1748 12.6125 9.37481 12.6125C7.92481 12.6125 6.58732 13.025 5.47482 13.75C5.43732 13.4375 5.4248 13.125 5.4248 12.8C5.4248 7.11249 10.3623 2.5 16.4623 2.5C22.5623 2.5 27.4998 7.11249 27.4998 12.8C27.4998 16.175 25.7623 19.1625 23.0873 21.0375Z" stroke="white" stroke-width="1.5" stroke-linecap="round" stroke-linejoin="round"/>
<path d="M16.25 19.0372C16.25 20.5247 15.7 21.8998 14.775 22.9873C13.5375 24.4873 11.575 25.4498 9.375 25.4498L6.1125 27.3872C5.5625 27.7247 4.8625 27.2623 4.9375 26.6248L5.25 24.1623C3.575 22.9998 2.5 21.1372 2.5 19.0372C2.5 16.8372 3.67501 14.8998 5.47501 13.7498C6.58751 13.0248 7.925 12.6123 9.375 12.6123C13.175 12.6123 16.25 15.4872 16.25 19.0372Z" stroke="white" stroke-width="1.5" stroke-linecap="round" stroke-linejoin="round"/>
</svg>
