<svg width="43" height="43" viewBox="0 0 43 43" fill="none" xmlns="http://www.w3.org/2000/svg">
<path d="M19.3799 21.0241C22.6478 21.0241 25.331 18.3752 25.331 15.073C25.331 14.2818 25.1935 13.525 24.9183 12.8371L20.171 14.2475C19.9301 14.3164 19.6894 14.3507 19.4831 14.3507C19.2767 14.3507 19.0015 14.3164 18.7951 14.2475L13.9447 12.8027C13.6694 13.4907 13.4974 14.2475 13.4974 15.0386C13.4288 18.3409 16.0774 21.0241 19.3799 21.0241H19.3799Z" fill="#4692FE"/>
<path d="M18.9349 13.5923C19.279 13.6954 19.6228 13.6954 19.9669 13.5923L24.9549 12.1132C25.0237 12.0789 25.0924 12.01 25.0924 11.9411V9.5332L19.9324 11.0811C19.7603 11.1155 19.5883 11.15 19.4165 11.15C19.2444 11.15 19.0724 11.1157 18.9005 11.0811L13.8438 9.56748V11.9411C13.8438 12.01 13.8781 12.0786 13.9812 12.1132L18.9349 13.5923Z" fill="#4692FE"/>
<path d="M10.9204 8.02017L19.0732 10.4281C19.2795 10.497 19.4859 10.497 19.6922 10.4281L26.7098 8.32971V11.1849C26.5723 11.2192 26.4689 11.357 26.4689 11.4945V11.7697C26.4689 11.9072 26.5721 12.0449 26.7098 12.0792L26.2971 13.0081C26.2628 13.1113 26.3314 13.2145 26.4346 13.249L26.7787 13.2833H26.9851L27.3292 13.249C27.4324 13.249 27.5012 13.1115 27.4667 13.0081L27.0539 12.0792C27.1914 12.0449 27.2949 11.9072 27.2949 11.7697V11.4945C27.2949 11.357 27.1917 11.2192 27.0539 11.1849V8.22651L27.8451 7.9856C28.0514 7.91673 28.0514 7.6415 27.8451 7.57287L19.6923 5.16493C19.4859 5.09606 19.2795 5.09606 19.0732 5.16493L10.9204 7.57287C10.714 7.64174 10.714 7.95152 10.9204 8.02014L10.9204 8.02017Z" fill="#4692FE"/>
<path d="M20.8609 28.1438V27.6966C20.8609 27.4213 20.9641 27.1807 21.1704 27.0429C21.3079 26.9054 21.5145 26.8365 21.7209 26.8365H21.8929L27.6377 28.0407L29.8393 27.5934C29.633 25.6671 29.4609 23.8093 29.3578 23.0525C29.1514 21.2981 28.3257 20.1973 26.7778 20.1973H25.2641C25.0232 20.1973 24.8168 20.3004 24.645 20.4382C23.2691 21.7454 21.3771 22.5366 19.3475 22.5366C17.2834 22.5366 15.4259 21.7454 14.0501 20.4382C13.878 20.3007 13.6716 20.1973 13.431 20.1973H11.9173C10.3694 20.1973 9.50938 21.2636 9.33732 23.0525C9.13096 24.8413 8.33984 32.9253 8.33984 32.9253C8.40871 34.198 9.23418 35.2989 10.4726 35.7116C12.7774 36.4684 16.7334 36.8811 19.3822 36.8811H20.0701V36.778V28.9348C20.0701 28.4875 20.4142 28.1436 20.8269 28.1436C20.8264 28.1439 20.861 28.1439 20.861 28.1439L20.8609 28.1438Z" fill="#4692FE"/>
<path d="M22.7168 29.3489L24.6777 29.7616L26.6387 30.14H26.673C26.7418 30.14 26.845 30.0711 26.845 30.0025C26.8793 29.8993 26.8107 29.7962 26.7075 29.7962L24.7466 29.4177L22.7857 29.005C22.6825 28.9707 22.5793 29.0393 22.5793 29.1425C22.5448 29.2457 22.6136 29.3146 22.7168 29.3489Z" fill="#4692FE"/>
<path d="M22.7168 30.2434L24.6777 30.6561L26.6387 31.0345H26.673C26.7418 31.0345 26.845 30.9657 26.845 30.8971C26.8793 30.7939 26.8107 30.6907 26.7075 30.6907L24.7466 30.3123L22.7857 29.8995C22.6825 29.8652 22.5793 29.9339 22.5793 30.037C22.5448 30.1402 22.6136 30.2434 22.7168 30.2434Z" fill="#4692FE"/>
<path d="M22.7168 31.1711L24.6777 31.5839L26.6387 31.9623H26.673C26.7418 31.9623 26.845 31.8934 26.845 31.8248C26.8793 31.7216 26.8107 31.6184 26.7075 31.6184L24.7466 31.24L22.7857 30.8273C22.6825 30.793 22.5793 30.8616 22.5793 30.9648C22.5448 31.0677 22.6136 31.1366 22.7168 31.1711Z" fill="#4692FE"/>
<path d="M22.7168 32.0657L24.6777 32.4784L26.6387 32.8568H26.673C26.7418 32.8568 26.845 32.7879 26.845 32.7193C26.8793 32.6161 26.8107 32.513 26.7075 32.513L24.7466 32.1345L22.7857 31.7218C22.6825 31.6875 22.5793 31.7561 22.5793 31.8593C22.5448 31.9625 22.6136 32.0657 22.7168 32.0657Z" fill="#4692FE"/>
<path d="M22.7168 32.9954L24.6777 33.4081L26.6387 33.7865H26.673C26.7418 33.7865 26.845 33.7176 26.845 33.649C26.8793 33.5458 26.8107 33.4426 26.7075 33.4426L24.7466 33.0642L22.7857 32.6515C22.6825 32.6172 22.5793 32.6858 22.5793 32.789C22.5448 32.8922 22.6136 32.9608 22.7168 32.9954Z" fill="#4692FE"/>
<path d="M22.7168 33.8899L24.6777 34.3026L26.6387 34.681H26.673C26.7418 34.681 26.845 34.6122 26.845 34.5435C26.8793 34.4404 26.8107 34.3372 26.7075 34.3372L24.7466 33.9588L22.7857 33.546C22.6825 33.5117 22.5793 33.5803 22.5793 33.6835C22.5448 33.7867 22.6136 33.8899 22.7168 33.8899Z" fill="#4692FE"/>
<path d="M22.7168 34.8176L24.6777 35.2304L26.6387 35.6088H26.673C26.7418 35.6088 26.845 35.5399 26.845 35.4713C26.8793 35.3681 26.8107 35.2649 26.7075 35.2649L24.7466 34.8865L22.7857 34.4738C22.6825 34.4395 22.5793 34.5081 22.5793 34.6113C22.5448 34.7144 22.6136 34.7831 22.7168 34.8176Z" fill="#4692FE"/>
<path d="M34.4844 28.8324C34.2435 28.8324 34.0028 28.7981 33.7619 28.7981V27.6972C33.7619 27.6283 33.7275 27.594 33.693 27.5597C33.6587 27.5254 33.5898 27.5254 33.5555 27.5254L27.673 28.7295L21.7905 27.5254C21.7216 27.5254 21.6873 27.5254 21.653 27.5597C21.6186 27.594 21.5841 27.6629 21.5841 27.6972V28.7981C21.3432 28.7981 21.1025 28.7981 20.8961 28.8324C20.8273 28.8324 20.793 28.9013 20.793 28.9699V36.8131C20.793 36.8474 20.793 36.882 20.8273 36.9163C20.8616 36.9506 20.8961 36.9506 20.9305 36.9506C23.1663 36.8474 25.4025 37.1227 27.5009 37.7763L27.7072 37.8452H27.7415H27.7759L27.9822 37.7763C30.115 37.1226 32.3166 36.8474 34.5526 36.9506C34.5869 36.9506 34.6215 36.9506 34.6558 36.9163C34.6901 36.882 34.6901 36.8474 34.6901 36.8131V28.9699C34.5874 28.8667 34.5531 28.8324 34.4842 28.8324H34.4844ZM27.4668 36.71L21.894 35.5748V27.938L27.4668 29.0732V36.71ZM33.3836 35.575L27.8108 36.7102V29.0734L33.3836 27.9382V35.575Z" fill="#4692FE"/>
<path d="M28.6693 30.1401H28.7037L30.6646 29.7617L32.6255 29.349C32.7287 29.3146 32.7976 29.2458 32.763 29.1426C32.7287 29.0394 32.6598 28.9706 32.5566 29.0051L30.5957 29.4178L28.6348 29.7962C28.5316 29.8306 28.4627 29.8994 28.4973 30.0026C28.4973 30.0712 28.6007 30.1401 28.6693 30.1401H28.6693Z" fill="#4692FE"/>
<path d="M28.6693 31.0346H28.7037L30.6646 30.6562L32.6255 30.2435C32.7287 30.2092 32.7976 30.1403 32.763 30.0371C32.7287 29.9339 32.6598 29.8651 32.5566 29.8996L30.5957 30.3124L28.6348 30.6908C28.5316 30.7251 28.4627 30.794 28.4973 30.8971C28.4973 31.0003 28.6007 31.0346 28.6693 31.0346H28.6693Z" fill="#4692FE"/>
<path d="M28.6693 31.9624H28.7037L30.6646 31.584L32.6255 31.1712C32.7287 31.1369 32.7976 31.068 32.763 30.9649C32.7287 30.8617 32.6598 30.7928 32.5566 30.8274L30.5957 31.2401L28.6348 31.6185C28.5316 31.6528 28.4627 31.7217 28.4973 31.8249C28.4973 31.8935 28.6007 31.9624 28.6693 31.9624H28.6693Z" fill="#4692FE"/>
<path d="M28.6693 32.8569H28.7037L30.6646 32.4785L32.6255 32.0658C32.7287 32.0314 32.7976 31.9626 32.763 31.8594C32.7287 31.7562 32.6598 31.6873 32.5566 31.7219L30.5957 32.1346L28.6348 32.513C28.5316 32.5474 28.4627 32.6162 28.4973 32.7194C28.4973 32.8226 28.6007 32.8569 28.6693 32.8569H28.6693Z" fill="#4692FE"/>
<path d="M28.6693 33.7866H28.7037L30.6646 33.4082L32.6255 32.9954C32.7287 32.9611 32.7976 32.8923 32.763 32.7891C32.7287 32.6859 32.6598 32.617 32.5566 32.6516L30.5957 33.0643L28.6348 33.4427C28.5316 33.477 28.4627 33.5459 28.4973 33.6491C28.4973 33.7177 28.6007 33.7866 28.6693 33.7866H28.6693Z" fill="#4692FE"/>
<path d="M28.6693 34.6811H28.7037L30.6646 34.3027L32.6255 33.89C32.7287 33.8557 32.7976 33.7868 32.763 33.6836C32.7287 33.5804 32.6598 33.5116 32.5566 33.5461L30.5957 33.9588L28.6348 34.3373C28.5316 34.3716 28.4627 34.4404 28.4973 34.5436C28.4973 34.6468 28.5662 34.6811 28.6693 34.6811H28.6693Z" fill="#4692FE"/>
<path d="M28.6693 35.6089H28.7037L30.6646 35.2304L32.6255 34.8177C32.7287 34.7834 32.7976 34.7145 32.763 34.6114C32.7287 34.5082 32.6598 34.4393 32.5566 34.4739L30.5957 34.8866L28.6348 35.265C28.5316 35.2993 28.4627 35.3682 28.4973 35.4714C28.4973 35.54 28.5662 35.6089 28.6693 35.6089H28.6693Z" fill="#4692FE"/>
</svg>
