<svg width="29" height="28" viewBox="0 0 29 28" fill="none" xmlns="http://www.w3.org/2000/svg">
<path d="M26.6041 17.2665H19.603V9.79863C19.603 9.42732 19.4555 9.071 19.1929 8.8085C18.9304 8.54601 18.5741 8.39844 18.2028 8.39844H9.80149C9.43019 8.39844 9.07386 8.54596 8.81136 8.8085C8.54887 9.07104 8.4013 9.42737 8.4013 9.79863V13.0658H1.40019C1.02889 13.0658 0.672559 13.2133 0.410065 13.4759C0.14757 13.7384 0 14.0947 0 14.466V26.6013C0 26.9726 0.147522 27.3289 0.410065 27.5914C0.672607 27.8539 1.02894 28.0014 1.40019 28.0014H26.6042C26.9755 28.0014 27.3318 27.8539 27.5943 27.5914C27.8568 27.3288 28.0044 26.9725 28.0044 26.6013V18.6667C28.0044 18.2954 27.8568 17.939 27.5943 17.6765C27.3318 17.414 26.9754 17.2665 26.6042 17.2665H26.6041ZM8.40125 27.068H1.40014C1.14239 27.068 0.9334 26.859 0.9334 26.6013V14.466C0.9334 14.2083 1.14239 13.9993 1.40014 13.9993H8.40125V27.068ZM18.6695 27.068H9.33473V9.79863C9.33473 9.54088 9.54372 9.33189 9.80147 9.33189H18.2028C18.3266 9.33189 18.4453 9.38107 18.5328 9.46858C18.6204 9.55609 18.6695 9.67486 18.6695 9.79863V27.068ZM27.0709 26.6013C27.0709 26.725 27.0217 26.8438 26.9342 26.9313C26.8467 27.0188 26.7279 27.068 26.6041 27.068H19.603V18.2H26.6041C26.7279 18.2 26.8467 18.2491 26.9342 18.3366C27.0217 18.4242 27.0709 18.5429 27.0709 18.6667V26.6013Z" fill="#4692FE"/>
<path d="M17.6638 3.71078C17.8659 3.44303 17.9245 3.09362 17.8207 2.77458C17.7169 2.45578 17.4638 2.20761 17.1429 2.10989L15.7258 1.68983H15.726C15.7069 1.6842 15.6904 1.67211 15.6793 1.65586L14.8419 0.439029C14.6498 0.163775 14.3354 0 13.9999 0C13.6645 0 13.35 0.163775 13.1579 0.439029L12.3249 1.65778C12.3136 1.67424 12.2972 1.68633 12.2782 1.69216L10.8617 2.11223H10.8615C10.5404 2.20974 10.2873 2.45791 10.1833 2.77713C10.0793 3.09614 10.1381 3.44599 10.3402 3.71376L11.241 4.88397C11.2535 4.90002 11.2599 4.9196 11.2597 4.93982L11.2187 6.41712C11.2124 6.75259 11.3704 7.06991 11.6419 7.26706C11.9134 7.46418 12.264 7.51627 12.5809 7.40667L13.9736 6.91138H13.9739C13.9924 6.90471 14.0126 6.90471 14.0312 6.91138L15.4235 7.40667C15.7406 7.51627 16.0913 7.46418 16.3626 7.26706C16.6341 7.06995 16.7922 6.75261 16.786 6.41712L16.7449 4.94083H16.7447C16.7443 4.92062 16.7507 4.90082 16.763 4.88478L17.6638 3.71078ZM16.0219 4.31339C15.8798 4.49967 15.8054 4.72887 15.8108 4.96309L15.8519 6.44039C15.8539 6.46956 15.8408 6.49748 15.8171 6.51456C15.7935 6.53165 15.7627 6.5354 15.7358 6.52436L14.3445 6.03011H14.3443C14.1231 5.95114 13.8814 5.95114 13.6601 6.03011L12.2677 6.52477C12.2409 6.53623 12.2098 6.53269 12.1861 6.5154C12.1625 6.49831 12.1494 6.46997 12.1517 6.4408L12.1927 4.96265C12.1979 4.72845 12.1236 4.49924 11.9812 4.31295L11.08 3.14194C11.0613 3.11923 11.0557 3.08839 11.0652 3.06047C11.0746 3.03276 11.098 3.01171 11.1267 3.00525L12.5438 2.58518H12.5436C12.7684 2.5183 12.9636 2.3764 13.0968 2.18324L13.9323 0.964116H13.9321C13.9478 0.939529 13.9746 0.924735 14.0036 0.924735C14.0326 0.924735 14.0594 0.939529 14.0751 0.964116L14.911 2.18324C15.044 2.37619 15.239 2.51788 15.4636 2.58455L16.8811 3.00462C16.9092 3.01191 16.9315 3.03296 16.9405 3.06067C16.9497 3.08818 16.9438 3.11859 16.9253 3.14089L16.0219 4.31339Z" fill="#4692FE"/>
<path d="M22.5602 1.21027C22.4983 1.10296 22.3964 1.02461 22.2768 0.992529C22.1572 0.960441 22.0299 0.97711 21.9226 1.03899L19.9017 2.20585C19.6783 2.33462 19.6016 2.62028 19.7306 2.84365C19.8594 3.06702 20.145 3.14349 20.3684 3.01472L22.3894 1.84787C22.6125 1.71889 22.689 1.43343 22.5602 1.21028V1.21027Z" fill="#4692FE"/>
<path d="M22.3894 5.93641L20.3684 4.76956C20.145 4.64079 19.8594 4.71726 19.7306 4.94063C19.6016 5.164 19.6783 5.44967 19.9017 5.57843L21.9226 6.74528C22.146 6.87426 22.4314 6.79758 22.5604 6.57422C22.6894 6.35085 22.6127 6.06539 22.3894 5.93641Z" fill="#4692FE"/>
<path d="M8.10029 2.20594L6.07933 1.03909C5.85596 0.910319 5.5705 0.986791 5.44152 1.21016C5.31255 1.43352 5.38922 1.7192 5.61259 1.84797L7.63355 3.01482C7.85692 3.1438 8.14259 3.06712 8.27136 2.84375C8.40034 2.62038 8.32366 2.33492 8.10029 2.20594Z" fill="#4692FE"/>
<path d="M7.63355 4.77347L5.61259 5.94032C5.38923 6.0693 5.31255 6.35476 5.44153 6.57812C5.57051 6.80149 5.85597 6.87817 6.07933 6.74919L8.10029 5.58234C8.32366 5.45357 8.40034 5.1679 8.27136 4.94453C8.14259 4.72116 7.85692 4.64469 7.63355 4.77347Z" fill="#4692FE"/>
<path d="M15.0048 11.3026C14.7492 11.1962 14.4677 11.168 14.1962 11.2222C13.9245 11.2762 13.6751 11.4097 13.4796 11.606L11.6126 13.473C11.3113 13.7747 11.1638 14.1972 11.2122 14.621C11.2605 15.0447 11.4993 15.4233 11.8608 15.6495C12.2223 15.8756 12.6672 15.9248 13.0693 15.7829V17.7301C13.0693 18.2304 13.3362 18.6925 13.7694 18.9427C14.2026 19.1928 14.7364 19.1928 15.1696 18.9427C15.6028 18.6925 15.8697 18.2304 15.8697 17.7301V12.5959C15.8704 12.3188 15.7885 12.0477 15.6345 11.8175C15.4803 11.587 15.2613 11.4078 15.0048 11.3026L15.0048 11.3026ZM14.9363 17.7303C14.9363 17.9881 14.7273 18.197 14.4696 18.197C14.2118 18.197 14.0028 17.9881 14.0028 17.7303V14.8501C14.0001 14.6627 13.8863 14.495 13.7134 14.4231C13.5402 14.3512 13.341 14.3892 13.2066 14.5196L12.9326 14.7932C12.7495 14.9701 12.4584 14.9674 12.2784 14.7873C12.0983 14.6073 12.0956 14.3162 12.2725 14.1331L14.1395 12.2661C14.2741 12.1355 14.4733 12.0973 14.6464 12.169C14.8196 12.2409 14.9336 12.4086 14.9363 12.5962L14.9363 17.7303Z" fill="#4692FE"/>
</svg>
