<svg width="40" height="40" viewBox="0 0 40 40" fill="none" xmlns="http://www.w3.org/2000/svg">
<path d="M31.026 12.134L24.066 5.174C23.95 5.058 23.834 5 23.66 5H10.9C9.276 5 8 6.276 8 7.9V31.1C8 32.724 9.276 34 10.9 34H28.3C29.924 34 31.2 32.724 31.2 31.1V29.708C31.2 29.418 30.91 29.128 30.62 29.128C30.33 29.128 30.04 29.418 30.04 29.708V31.1C30.04 32.028 29.228 32.84 28.3 32.84H10.9C9.914 32.84 9.16 32.028 9.16 31.1V7.9C9.16 6.914 9.914 6.16 10.9 6.16H23.08V10.22C23.08 11.844 24.356 13.12 25.98 13.12H30.04V26.228C30.04 26.518 30.33 26.808 30.62 26.808C30.91 26.808 31.2 26.518 31.2 26.228V12.54C31.2 12.366 31.142 12.25 31.026 12.134ZM24.2397 10.22V6.972L29.2277 11.96H25.9797C24.9937 11.96 24.2397 11.148 24.2397 10.22Z" fill="#4692FE"/>
<path d="M31.1991 27.9706C31.1991 28.2909 30.9394 28.5506 30.6191 28.5506C30.2988 28.5506 30.0391 28.2909 30.0391 27.9706C30.0391 27.6503 30.2988 27.3906 30.6191 27.3906C30.9394 27.3906 31.1991 27.6503 31.1991 27.9706Z" fill="#4692FE"/>
<path d="M16.1186 13.1211C13.8566 13.1211 12.0586 14.9191 12.0586 17.1811C12.0586 19.4431 13.8566 21.2411 16.1186 21.2411C18.3806 21.2411 20.1786 19.4431 20.1786 17.1811C20.1786 14.9191 18.3806 13.1211 16.1186 13.1211ZM16.1186 20.0811C14.4946 20.0811 13.2186 18.8051 13.2186 17.1811C13.2186 15.5571 14.4946 14.2811 16.1186 14.2811C17.7426 14.2811 19.0186 15.5571 19.0186 17.1811C19.0186 18.8051 17.7426 20.0811 16.1186 20.0811Z" fill="#4692FE"/>
<path d="M21.3417 17.7616H24.2417C24.5897 17.7616 24.8217 17.5296 24.8217 17.1816C24.8217 16.8336 24.5897 16.6016 24.2417 16.6016H21.3417C20.9937 16.6016 20.7617 16.8336 20.7617 17.1816C20.7617 17.5296 20.9937 17.7616 21.3417 17.7616Z" fill="#4692FE"/>
<path d="M26.5617 14.2812H21.3417C20.9937 14.2812 20.7617 14.5132 20.7617 14.8612C20.7617 15.2092 20.9937 15.4412 21.3417 15.4412H26.5617C26.9097 15.4412 27.1417 15.2092 27.1417 14.8612C27.1417 14.5132 26.9097 14.2812 26.5617 14.2812Z" fill="#4692FE"/>
<path d="M18.2668 15.6154C18.0348 15.3834 17.6868 15.3834 17.4548 15.6154L15.5408 17.5294L14.7868 16.7754C14.5548 16.5434 14.2068 16.5434 13.9748 16.7754C13.7428 17.0074 13.7428 17.3554 13.9748 17.5874L15.1348 18.7474C15.2508 18.8634 15.4248 18.9214 15.5408 18.9214C15.6568 18.9214 15.8308 18.8634 15.9468 18.7474L18.2668 16.4274C18.4988 16.1954 18.4988 15.8474 18.2668 15.6154Z" fill="#4692FE"/>
<path d="M16.1186 22.3984C13.8566 22.3984 12.0586 24.1964 12.0586 26.4584C12.0586 28.7204 13.8566 30.5184 16.1186 30.5184C18.3806 30.5184 20.1786 28.7204 20.1786 26.4584C20.1786 24.1964 18.3806 22.3984 16.1186 22.3984ZM16.1186 29.3584C14.4946 29.3584 13.2186 28.0824 13.2186 26.4584C13.2186 24.8344 14.4946 23.5584 16.1186 23.5584C17.7426 23.5584 19.0186 24.8344 19.0186 26.4584C19.0186 28.0824 17.7426 29.3584 16.1186 29.3584Z" fill="#4692FE"/>
<path d="M21.3417 25.8789C20.9937 25.8789 20.7617 26.1109 20.7617 26.4589C20.7617 26.8069 20.9937 27.0389 21.3417 27.0389H24.2417C24.5897 27.0389 24.8217 26.8069 24.8217 26.4589C24.8217 26.1109 24.5897 25.8789 24.2417 25.8789H21.3417Z" fill="#4692FE"/>
<path d="M27.1417 24.1386C27.1417 23.7906 26.9097 23.5586 26.5617 23.5586H21.3417C20.9937 23.5586 20.7617 23.7906 20.7617 24.1386C20.7617 24.4866 20.9937 24.7186 21.3417 24.7186H26.5617C26.9097 24.7186 27.1417 24.4866 27.1417 24.1386Z" fill="#4692FE"/>
<path d="M17.4548 24.8927L15.5408 26.8067L14.7868 26.0527C14.5548 25.8207 14.2068 25.8207 13.9748 26.0527C13.7428 26.2847 13.7428 26.6327 13.9748 26.8647L15.1348 28.0247C15.2508 28.1407 15.4248 28.1987 15.5408 28.1987C15.6568 28.1987 15.8308 28.1407 15.9468 28.0247L18.2668 25.7047C18.4988 25.4727 18.4988 25.1247 18.2668 24.8927C18.0348 24.6608 17.6868 24.6608 17.4548 24.8927Z" fill="#4692FE"/>
</svg>
