<svg width="40" height="40" viewBox="0 0 40 40" fill="none" xmlns="http://www.w3.org/2000/svg">
<path d="M30.0882 33.9999H10.2539V33.4367C10.2539 29.8938 12.144 26.6195 15.2125 24.8483C18.281 23.0766 22.0613 23.0766 25.13 24.8483C28.1985 26.6197 30.0886 29.8939 30.0886 33.4367L30.0882 33.9999ZM11.397 32.8736H28.9452C28.7586 29.8682 27.0468 27.1675 24.4085 25.7159C21.7699 24.2645 18.5724 24.2645 15.934 25.7159C13.2956 27.1673 11.5837 29.868 11.3972 32.8736H11.397Z" fill="#4692FE"/>
<path d="M19.7814 22.7576H19.6856H19.6858C18.3251 22.7063 17.0384 22.1263 16.0994 21.1408C15.1601 20.1553 14.6424 18.8421 14.6565 17.4807V10.6442L15.1689 10.5371H15.1692C16.7369 10.2973 18.3193 10.1675 19.9053 10.1484C21.4276 10.1686 22.9464 10.2983 24.4501 10.5371L24.9232 10.6161L24.9569 11.1284L24.9061 17.6328C24.9034 18.9912 24.3623 20.2928 23.4019 21.2534C22.4415 22.2138 21.1397 22.7546 19.7813 22.7576L19.7814 22.7576ZM15.7829 11.5844V17.4808C15.7691 18.55 16.1733 19.5826 16.9097 20.358C17.6463 21.1333 18.6566 21.5904 19.725 21.6313C20.7953 21.6464 21.8268 21.2319 22.5889 20.4804C23.3512 19.7289 23.7801 18.7031 23.7798 17.6329L23.8248 11.5844H23.8251C22.519 11.3973 21.2021 11.2957 19.8829 11.2804C18.5113 11.2977 17.142 11.3993 15.7829 11.5844L15.7829 11.5844Z" fill="#4692FE"/>
<path d="M14.984 13.7209L10 11.4401V11.0403C10.0003 10.8148 10.1262 10.6084 10.3266 10.5053L19.8103 6L20.0919 6.12395L29.5923 10.6293V11.0122H29.592C29.6046 11.2435 29.4844 11.4619 29.2823 11.5753L24.6307 13.6927L24.152 12.6735L27.7789 10.984L19.8045 7.20498L11.8191 11.0232L15.4571 12.7127L14.984 13.7209Z" fill="#4692FE"/>
<path d="M13.9161 19.4983C13.3247 19.4983 12.2266 19.0422 12.2266 17.3246C12.2266 15.4998 13.3529 15.0156 13.9161 15.0156H15.2227V16.142H13.9161C13.8316 16.142 13.3529 16.2377 13.3529 17.3246C13.3529 18.4115 13.9161 18.372 13.9161 18.372H15.4366V19.4983H13.9161Z" fill="#4692FE"/>
<path d="M25.6507 19.6959H24.1133V18.5695H25.6733C25.7972 18.5695 26.2364 18.4624 26.2364 17.5222C26.2364 16.3959 25.6733 16.3451 25.6733 16.3451H24.3441V15.2188H25.6507C26.2139 15.2188 27.3402 15.6974 27.3402 17.5222C27.346 19.2399 26.2365 19.6959 25.6507 19.6959Z" fill="#4692FE"/>
<path d="M27.9727 11.2812H29.099V20.5397H27.9727V11.2812Z" fill="#4692FE"/>
<path d="M28.5326 23.4979C28.0657 23.4952 27.6193 23.3071 27.2909 22.9753C26.9625 22.6434 26.7793 22.1946 26.7813 21.728C26.7833 21.2611 26.9703 20.8141 27.3014 20.485C27.6325 20.1559 28.0808 19.9716 28.5477 19.9727C29.0146 19.9737 29.4618 20.1597 29.7917 20.4903C30.1213 20.8207 30.3066 21.2685 30.3066 21.7353C30.305 22.2045 30.1172 22.6535 29.7846 22.9841C29.452 23.3147 29.0015 23.4995 28.5326 23.498L28.5326 23.4979ZM28.5326 21.099C28.2762 21.1035 28.0476 21.2614 27.9529 21.4995C27.8578 21.7376 27.9149 22.0096 28.0979 22.1891C28.2807 22.3689 28.5535 22.4212 28.7901 22.3221C29.0264 22.2231 29.1803 21.9918 29.1803 21.7353C29.1787 21.5651 29.1096 21.4025 28.9882 21.283C28.8667 21.1636 28.7028 21.0975 28.5326 21.099L28.5326 21.099Z" fill="#4692FE"/>
<path d="M24.2796 15.3452C22.841 15.0882 21.3818 14.964 19.9205 14.9736C18.388 14.9477 16.8566 15.0704 15.3476 15.3397L15.1055 14.2583C16.6967 13.9639 18.3138 13.8319 19.9318 13.8641C21.4707 13.8528 23.0071 13.9848 24.5216 14.2583L24.2796 15.3452Z" fill="#4692FE"/>
</svg>
