<svg width="40" height="40" viewBox="0 0 40 40" fill="none" xmlns="http://www.w3.org/2000/svg">
<path d="M20.017 19.9991C22.369 19.9991 24.2838 18.0364 24.2838 15.6257V13.183L27.1586 11.9565C27.3452 11.8766 27.4733 11.6951 27.4838 11.4924C27.4945 11.2897 27.3825 11.0978 27.2066 10.9964L20.2734 7.26317C20.1134 7.1779 19.9268 7.1779 19.7667 7.26317L12.8336 10.9964C12.7856 11.023 12.7483 11.0498 12.7108 11.0871C12.7108 11.0871 12.7055 11.0924 12.7055 11.0978C12.6628 11.1404 12.6361 11.1884 12.6095 11.2417C12.6041 11.2578 12.5988 11.2737 12.5881 11.2897C12.572 11.3377 12.5615 11.3911 12.5561 11.4444C12.5561 11.4551 12.5508 11.4605 12.5508 11.471V14.671C12.5508 14.9643 12.7907 15.2042 13.084 15.2042C13.3773 15.2042 13.6173 14.9643 13.6173 14.671V12.2763L15.7506 13.1884V15.631C15.7506 18.0364 17.6653 19.9991 20.0173 19.9991L20.017 19.9991ZM23.217 15.6257C23.217 17.4498 21.7825 18.9324 20.017 18.9324C18.2516 18.9324 16.817 17.4498 16.817 15.6257V15.0817C18.9449 14.5431 21.0943 14.5431 23.217 15.0817V15.6257ZM23.217 13.983C21.0892 13.4817 18.9449 13.4817 16.817 13.983V12.9485C18.9449 12.4099 21.0943 12.4099 23.217 12.9485V13.983ZM14.3102 11.4125L20.0169 8.34042L25.7236 11.4125L24.0756 12.1165C24.0595 12.1058 24.0383 12.1005 24.0222 12.09C23.9903 12.0685 23.9581 12.0527 23.9262 12.042C23.9155 12.0366 23.9102 12.0313 23.8997 12.0259C21.3238 11.29 18.7157 11.29 16.1397 12.0259C16.129 12.0313 16.1236 12.0366 16.1131 12.042C16.0758 12.0527 16.049 12.0739 16.0171 12.09C16.001 12.1007 15.9798 12.106 15.9638 12.1165L14.3102 11.4125Z" fill="black"/>
<path d="M11.4844 25.6562V32.2642C11.4844 32.5575 11.7243 32.7974 12.0176 32.7974H28.0176C28.311 32.7974 28.5509 32.5575 28.5509 32.2642V25.6562C28.5509 24.8454 28.2895 24.0722 27.7989 23.4109C27.3083 22.7495 26.5935 22.2642 25.7775 22.0454L24.2255 21.6347C23.8255 21.528 23.452 21.336 23.1375 21.0693C23.1215 21.0532 23.1003 21.0479 23.0842 21.0374C23.0735 21.0267 23.0628 21.016 23.0523 21.0108C23.0416 21.0055 23.0308 21.0055 23.015 21.0001C22.9777 20.984 22.9402 20.9735 22.8976 20.9628C22.871 20.9575 22.8442 20.9521 22.8177 20.9468C22.807 20.9468 22.7962 20.9414 22.7857 20.9414H22.7911C22.7645 20.9414 22.7431 20.9521 22.7217 20.9575C22.6898 20.9628 22.6576 20.9682 22.6257 20.9789C22.5884 20.9896 22.5509 21.0108 22.519 21.0323C22.4976 21.0483 22.4764 21.0588 22.4549 21.0749C22.423 21.1015 22.3962 21.139 22.3697 21.1762C22.359 21.1923 22.3431 21.1977 22.3378 21.2135L20.0176 25.3095L17.7029 21.2082C17.6922 21.1921 17.6763 21.1816 17.6656 21.1656C17.6549 21.1548 17.6549 21.139 17.6442 21.1283C17.6335 21.1122 17.6176 21.1068 17.6016 21.0964C17.575 21.0698 17.5429 21.043 17.5109 21.0269C17.4844 21.0109 17.4576 20.995 17.4257 20.9843C17.3938 20.9736 17.3616 20.9629 17.3243 20.9577C17.2924 20.9524 17.2603 20.947 17.2284 20.9524C17.1964 20.9524 17.1589 20.9577 17.127 20.9631C17.0897 20.9685 17.0576 20.9792 17.0257 20.995C17.0096 21.0004 16.9884 21.0004 16.9723 21.0111C16.9563 21.0218 16.9509 21.0325 16.9351 21.043C16.919 21.0537 16.9031 21.0591 16.8871 21.0696C16.5723 21.331 16.2098 21.5229 15.7991 21.635L14.2471 22.051C13.4311 22.2698 12.7324 22.739 12.2257 23.4165C11.7456 24.0723 11.4844 24.8455 11.4844 25.6562L11.4844 25.6562ZM12.5509 25.6562C12.5509 25.0803 12.7375 24.5256 13.0895 24.0508C13.4522 23.5709 13.9482 23.2347 14.5348 23.0749L16.0922 22.6588C16.4389 22.5629 16.7643 22.4189 17.0629 22.2428L19.5536 26.6588C19.6496 26.8294 19.8257 26.9307 20.0176 26.9307C20.2096 26.9307 20.3857 26.8294 20.4817 26.6586L22.9723 22.2479C23.2817 22.4291 23.6123 22.5784 23.959 22.6693L25.5056 23.08C26.0868 23.2347 26.5935 23.5813 26.9455 24.0507C27.2975 24.5255 27.4841 25.08 27.4841 25.6561L27.4844 31.7304H12.5507L12.5509 25.6562Z" fill="black"/>
</svg>
