<svg width="56" height="56" viewBox="0 0 56 56" fill="none" xmlns="http://www.w3.org/2000/svg">
<path d="M25.7248 16.9518L18.7014 21.5368C16.4498 23.0068 16.4498 26.2968 18.7014 27.7668L25.7248 32.3518C26.9848 33.1802 29.0614 33.1802 30.3214 32.3518L37.3098 27.7668C39.5498 26.2968 39.5498 23.0185 37.3098 21.5485L30.3214 16.9635C29.0614 16.1235 26.9848 16.1235 25.7248 16.9518Z" stroke="#BBBBC7" stroke-width="1.5" stroke-linecap="round" stroke-linejoin="round"/>
<path d="M20.5683 29.2598L20.5566 34.7314C20.5566 36.2131 21.7 37.7998 23.1 38.2664L26.8216 39.5031C27.4633 39.7131 28.525 39.7131 29.1783 39.5031L32.9 38.2664C34.3 37.7998 35.4433 36.2131 35.4433 34.7314V29.3181" stroke="#BBBBC7" stroke-width="1.5" stroke-linecap="round" stroke-linejoin="round"/>
<path d="M38.9668 31.5V24.5" stroke="#BBBBC7" stroke-width="1.5" stroke-linecap="round" stroke-linejoin="round"/>
</svg>
