<svg width="56" height="56" viewBox="0 0 56 56" fill="none" xmlns="http://www.w3.org/2000/svg">
<path d="M24.687 26.6813C24.5703 26.6697 24.4303 26.6697 24.302 26.6813C21.5253 26.588 19.3203 24.313 19.3203 21.513C19.3203 18.6547 21.6303 16.333 24.5003 16.333C27.3586 16.333 29.6803 18.6547 29.6803 21.513C29.6686 24.313 27.4636 26.588 24.687 26.6813Z" stroke="#BBBBC7" stroke-width="1.5" stroke-linecap="round" stroke-linejoin="round"/>
<path d="M33.1448 18.667C35.4082 18.667 37.2282 20.4987 37.2282 22.7503C37.2282 24.9553 35.4782 26.752 33.2965 26.8337C33.2032 26.822 33.0982 26.822 32.9932 26.8337" stroke="#BBBBC7" stroke-width="1.5" stroke-linecap="round" stroke-linejoin="round"/>
<path d="M18.8529 30.987C16.0295 32.877 16.0295 35.957 18.8529 37.8353C22.0612 39.982 27.3229 39.982 30.5312 37.8353C33.3545 35.9453 33.3545 32.8653 30.5312 30.987C27.3345 28.852 22.0729 28.852 18.8529 30.987Z" stroke="#BBBBC7" stroke-width="1.5" stroke-linecap="round" stroke-linejoin="round"/>
<path d="M35.3965 37.333C36.2365 37.158 37.0298 36.8197 37.6832 36.318C39.5032 34.953 39.5032 32.7013 37.6832 31.3363C37.0415 30.8463 36.2598 30.5197 35.4315 30.333" stroke="#BBBBC7" stroke-width="1.5" stroke-linecap="round" stroke-linejoin="round"/>
</svg>
