<svg width="56" height="56" viewBox="0 0 56 56" fill="none" xmlns="http://www.w3.org/2000/svg">
<path d="M28.187 26.6813C28.0703 26.6697 27.9303 26.6697 27.802 26.6813C25.0253 26.588 22.8203 24.313 22.8203 21.513C22.8203 18.6547 25.1303 16.333 28.0003 16.333C30.8586 16.333 33.1803 18.6547 33.1803 21.513C33.1686 24.313 30.9636 26.588 28.187 26.6813Z" stroke="#BBBBC7" stroke-width="1.5" stroke-linecap="round" stroke-linejoin="round"/>
<path d="M22.3529 30.987C19.5295 32.877 19.5295 35.957 22.3529 37.8353C25.5612 39.982 30.8229 39.982 34.0312 37.8353C36.8545 35.9453 36.8545 32.8653 34.0312 30.987C30.8345 28.852 25.5729 28.852 22.3529 30.987Z" stroke="#BBBBC7" stroke-width="1.5" stroke-linecap="round" stroke-linejoin="round"/>
</svg>
